<?xml version="1.0" encoding="UTF-8"?>
<svg version="1.1" xmlns="http://www.w3.org/2000/svg" width="1024" height="1024">
<path d="M0 0 C337.92 0 675.84 0 1024 0 C1024 337.92 1024 675.84 1024 1024 C686.08 1024 348.16 1024 0 1024 C0 686.08 0 348.16 0 0 Z " fill="#F9F7F4" transform="translate(0,0)"/>
<path d="M0 0 C1.03745361 -0.00555908 2.07490723 -0.01111816 3.14379883 -0.0168457 C30.83063991 0.24133238 55.16492532 12.76212107 74.875 31.5625 C94.92453032 52.39771583 105.62910112 79.5928916 105.5 108.4375 C105.49581055 109.71633057 105.49162109 110.99516113 105.48730469 112.31274414 C105.31252402 126.99339036 102.55028466 140.33830142 98.1875 154.3125 C99.24324219 154.28893433 99.24324219 154.28893433 100.3203125 154.26489258 C140.51660191 153.48759814 140.51660191 153.48759814 152.46484375 164.390625 C157.67384802 169.92931309 161.18815141 175.18511319 161.6875 182.9375 C161.1982833 195.85282095 153.61110294 205.57123492 145.70214844 215.10253906 C132.2302298 230.92422989 132.2302298 230.92422989 128.6328125 250.890625 C130.3424957 261.43768471 137.20155378 269.145242 143.6640625 277.26342773 C185.04588752 329.34241124 208.73206246 400.44020055 201.62304688 467.18945312 C195.6474074 513.81826194 172.53526413 557.83642642 135.125 586.8125 C100.50079983 612.94302913 61.81499103 625.16325177 19.1875 630.3125 C17.98077637 630.48450928 16.77405273 630.65651855 15.53076172 630.83374023 C10.65969762 631.43970383 5.81410594 631.51048398 0.91015625 631.55078125 C-0.07717499 631.5605751 -1.06450623 631.57036896 -2.08175659 631.58045959 C-38.18076729 631.8632282 -73.68171945 630.19875462 -108.8125 621.3125 C-110.17544189 620.96880371 -110.17544189 620.96880371 -111.56591797 620.61816406 C-160.04968678 608.00524478 -206.05697949 580.5846784 -232.5 537.0625 C-261.34764059 487.91221454 -262.74202271 434.49186073 -249.02734375 380.20458984 C-238.81242627 341.94356413 -220.63245243 307.31294517 -197.47363281 275.47167969 C-190.36638124 265.6822415 -184.77131475 257.23688091 -185.25390625 244.71875 C-187.02226491 233.93547201 -194.25109468 225.01252868 -200.52368164 216.37939453 C-208.29602035 205.63633372 -212.02513691 196.76699528 -210.8125 183.3125 C-208.24621816 173.83296911 -201.03052346 167.52467036 -192.90625 162.5234375 C-175.92294281 153.81734821 -156.12925576 154.82433702 -137.5625 154.6875 C-133.96463385 154.65084122 -130.36687096 154.61020822 -126.769104 154.56484985 C-124.54988765 154.53789669 -122.33059563 154.51642973 -120.11126709 154.50131226 C-115.24040003 154.45145376 -110.59939863 154.33533282 -105.8125 153.3125 C-106.15023437 152.19875 -106.48796875 151.085 -106.8359375 149.9375 C-113.31462139 128.03049715 -115.91501366 104.63554781 -109.8125 82.3125 C-109.54566406 81.31605469 -109.27882813 80.31960938 -109.00390625 79.29296875 C-100.31622545 50.44986849 -79.44299412 27.6087887 -53.296875 13.3671875 C-36.02737235 4.42266931 -19.33980758 0.08691728 0 0 Z " fill="#312158" transform="translate(516.8125,180.6875)"/>
<path d="M0 0 C8.93303263 0.03839781 17.86386354 0.03226826 26.79672813 -0.03729439 C32.90842873 -0.08365936 39.01957157 -0.09675517 45.13143349 -0.08382988 C48.67755858 -0.07778822 52.22169317 -0.0884274 55.76745605 -0.14225769 C59.64049515 -0.20067223 63.51102212 -0.18134112 67.38446045 -0.15538025 C68.50880493 -0.18510925 69.63314941 -0.21483826 70.79156494 -0.24546814 C75.60809388 -0.15704394 78.55099217 0.09107346 82.34657288 3.21252441 C84.63123302 5.73064716 86.68165739 8.30966238 88.70477295 11.03993225 C89.81528627 12.31843192 90.93615056 13.58817673 92.0758667 14.8407135 C98.94132438 22.67321401 105.57858278 30.61327461 111.70477295 39.03993225 C112.29306885 39.84140686 112.29306885 39.84140686 112.89324951 40.65907288 C134.03358788 69.80266281 147.02255783 104.6570608 152.70477295 140.03993225 C152.89684326 141.08922913 153.08891357 142.138526 153.2868042 143.21961975 C160.48694088 183.10526897 154.12619277 226.84597904 131.7243042 261.13368225 C104.36836609 300.50083496 64.52479927 324.66873683 17.479599 333.45553589 C4.18206232 335.75699363 -8.86100722 336.51473483 -22.34356689 336.43104553 C-25.42555714 336.41490434 -28.50624374 336.43103697 -31.5881958 336.4500885 C-72.28713883 336.49249655 -110.64597826 323.45789994 -140.29522705 295.03993225 C-141.09186768 294.30645569 -141.8885083 293.57297913 -142.70928955 292.817276 C-168.17494652 268.60469104 -183.50664185 233.85816802 -184.48565674 198.79090881 C-184.57076581 193.98971836 -184.57650663 189.18987782 -184.55596924 184.38807678 C-184.54531684 181.4397845 -184.55589083 178.4921116 -184.56866455 175.5438385 C-184.58213738 158.51949905 -183.92034895 141.22983414 -180.29522705 124.53993225 C-180.08937988 123.5761969 -179.88353271 122.61246155 -179.67144775 121.61952209 C-177.7504232 113.15201548 -175.20339812 104.90231611 -172.48272705 96.66493225 C-172.09278564 95.47835022 -171.70284424 94.29176819 -171.30108643 93.06922913 C-164.30606194 72.57977738 -154.13129226 53.42391356 -144.43377686 34.12141418 C-142.98230389 31.22941811 -141.53540861 28.33514244 -140.08855534 25.44083309 C-138.69274045 22.64947412 -137.29485145 19.85915834 -135.89623833 17.06920052 C-135.22950911 15.73892207 -134.56326261 14.40840159 -133.89750862 13.07763481 C-132.9761857 11.23714439 -132.05224962 9.39799113 -131.12750244 7.55921936 C-130.60314102 6.51430832 -130.0787796 5.46939728 -129.53852844 4.39282227 C-128.29522705 2.03993225 -128.29522705 2.03993225 -127.29522705 1.03993225 C-125.75094637 0.91655495 -124.20111962 0.8620116 -122.65216064 0.83460999 C-121.13800568 0.80470726 -121.13800568 0.80470726 -119.59326172 0.77420044 C-118.47139465 0.75747787 -117.34952759 0.74075531 -116.19366455 0.723526 C-115.01282288 0.70265427 -113.8319812 0.68178253 -112.61535645 0.66027832 C-109.32865503 0.60461435 -106.0419678 0.5541614 -102.75513458 0.50730133 C-100.66274882 0.47732512 -98.57038842 0.44590941 -96.47802734 0.41426086 C-64.31958546 -0.06535362 -32.16131573 -0.14748869 0 0 Z " fill="#409EE4" transform="translate(537.2952270507813,447.96006774902344)"/>
<path d="M0 0 C2.69359826 2.15635052 5.25897026 4.39014682 7.796875 6.7265625 C8.725 7.51740234 8.725 7.51740234 9.671875 8.32421875 C20.32020918 17.96194714 26.64070611 31.2330547 30.796875 44.7265625 C31.17070313 45.93441406 31.54453125 47.14226562 31.9296875 48.38671875 C35.51117517 63.32224587 33.89813618 81.33967232 28.796875 95.7265625 C28.42304687 96.80808594 28.04921875 97.88960938 27.6640625 99.00390625 C20.17037422 118.68104137 4.23200191 133.38691211 -14.203125 142.7265625 C-17.81767301 144.26980151 -21.44946951 145.56734536 -25.203125 146.7265625 C-27.0284375 147.314375 -27.0284375 147.314375 -28.890625 147.9140625 C-49.78862227 153.03998636 -72.40424548 149.95060327 -91.203125 139.7265625 C-95.08716137 137.29186482 -98.66019273 134.63060534 -102.203125 131.7265625 C-102.90695312 131.18515625 -103.61078125 130.64375 -104.3359375 130.0859375 C-114.87366331 121.57310802 -121.33253119 110.12414207 -126.203125 97.7265625 C-126.85667969 96.10814453 -126.85667969 96.10814453 -127.5234375 94.45703125 C-134.20859769 74.378176 -131.80889893 50.52855942 -123.078125 31.6015625 C-111.70396501 10.1600609 -93.30366806 -4.81858599 -70.203125 -12.2734375 C-46.20838243 -18.58374317 -20.20885878 -14.34336074 0 0 Z " fill="#FC9C15" transform="translate(562.203125,222.2734375)"/>
<path d="M0 0 C0.92126678 0.00137466 1.84253357 0.00274933 2.79171753 0.00416565 C4.74016921 0.01321476 6.68860033 0.03682011 8.63671875 0.07397461 C11.58674002 0.12834509 14.53390746 0.13550596 17.484375 0.13476562 C38.06740664 0.24936562 38.06740664 0.24936562 44.4921875 3.69140625 C45.4921875 6.69140625 45.4921875 6.69140625 44.515625 8.79296875 C40.13801052 15.49424589 35.38291339 21.81074917 30.47973633 28.13354492 C17.60529054 44.36420657 17.60529054 44.36420657 8.4921875 62.69140625 C-34.5671282 63.63287118 -77.60597189 63.82263446 -120.67393601 63.76343286 C-129.19496606 63.751938 -137.71599728 63.74667935 -146.23703325 63.74172986 C-163.66063535 63.73148046 -181.0842222 63.71407946 -198.5078125 63.69140625 C-199.05159546 62.59613617 -199.59537842 61.50086609 -200.15563965 60.37240601 C-200.8790788 58.91929622 -201.60259353 57.46622407 -202.32617188 56.01318359 C-202.68338318 55.29319687 -203.04059448 54.57321014 -203.40863037 53.83140564 C-206.05697512 48.51859545 -208.86920784 43.3578604 -212.0078125 38.31640625 C-212.47356689 37.56311035 -212.93932129 36.80981445 -213.41918945 36.03369141 C-219.86703696 25.75746906 -227.42628688 15.77407886 -237.5078125 8.81640625 C-238.4978125 8.11515625 -239.4878125 7.41390625 -240.5078125 6.69140625 C-240.5078125 6.03140625 -240.5078125 5.37140625 -240.5078125 4.69140625 C-237.62176507 3.88164473 -234.9535411 3.52143654 -231.96142578 3.39428711 C-230.61819748 3.33433815 -230.61819748 3.33433815 -229.24783325 3.2731781 C-228.28432953 3.23459183 -227.32082581 3.19600555 -226.328125 3.15625 C-225.32377411 3.11327286 -224.31942322 3.07029572 -223.28463745 3.02601624 C-221.15468557 2.93584094 -219.02464615 2.84771343 -216.89453125 2.76147461 C-213.67943955 2.63080135 -210.46473338 2.49269548 -207.25 2.35351562 C-201.33684992 2.10236977 -195.42306141 1.88637399 -189.5078125 1.69140625 C-188.72876556 1.66333893 -187.94971863 1.63527161 -187.14706421 1.60635376 C-185.17013888 1.54016137 -183.19246332 1.49747937 -181.21484375 1.45703125 C-180.17303955 1.43286133 -179.13123535 1.40869141 -178.05786133 1.38378906 C-174.27261164 1.84041085 -172.82644498 3.56819231 -170.5078125 6.4375 C-155.00254664 23.91120782 -127.7470386 35.47389342 -104.78491211 36.92700195 C-100.56770476 37.09349741 -96.35294073 37.12966298 -92.1328125 37.12890625 C-91.01129791 37.13100601 -91.01129791 37.13100601 -89.86712646 37.13314819 C-77.2066254 37.11370795 -65.55793213 35.8127448 -53.5078125 31.69140625 C-52.36054687 31.30726563 -51.21328125 30.923125 -50.03125 30.52734375 C-36.64513312 25.4426947 -20.5643482 15.75085096 -12.40869141 3.55151367 C-8.98535403 -0.57820894 -5.04859806 -0.12363454 0 0 Z " fill="#51AD9B" transform="translate(604.5078125,359.30859375)"/>
<path d="M0 0 C8.91 0 17.82 0 27 0 C16.5234375 20.953125 16.5234375 20.953125 15.26660156 23.46606445 C14.41621219 25.16733495 13.56661355 26.8690009 12.71777344 28.57104492 C10.78543673 32.44350404 8.84608981 36.31125642 6.8671875 40.16015625 C-7.83950579 68.84979525 -17.87909453 99.38629112 -24 131 C-24.31714028 132.57823926 -24.63479268 134.15637575 -24.953125 135.734375 C-32.02527302 171.45162432 -32.67455754 207.22000884 -21 242 C-20.67008057 242.98758301 -20.67008057 242.98758301 -20.33349609 243.99511719 C-14.20762983 261.77380527 -4.78350003 279.33860669 7 294 C7.44730469 294.55864746 7.89460938 295.11729492 8.35546875 295.69287109 C14.16445706 302.87884998 20.31391809 309.61107728 27 316 C26.34 316.33 25.68 316.66 25 317 C22.19943195 315.96230306 19.52755633 314.85645103 16.8125 313.625 C16.00530518 313.26067871 15.19811035 312.89635742 14.36645508 312.52099609 C-11.7347816 300.4774293 -32.51622683 282.16791913 -48 258 C-48.38236816 257.41428223 -48.76473633 256.82856445 -49.15869141 256.22509766 C-61.22502043 237.51164573 -69.04539675 213.72564612 -69.23828125 191.44921875 C-69.24798447 190.52597305 -69.25768768 189.60272736 -69.26768494 188.65150452 C-69.29262485 185.66345881 -69.30521506 182.67563944 -69.3125 179.6875 C-69.31511841 178.67167847 -69.31773682 177.65585693 -69.32043457 176.60925293 C-69.32475614 160.99790018 -68.43122166 146.27526762 -65 131 C-64.71661008 129.56056921 -64.43646172 128.12049496 -64.16015625 126.6796875 C-56.9008583 90.76864722 -40.32562956 59.344121 -19 30 C-11.93412088 20.27104627 -5.43348342 10.74347859 0 0 Z " fill="#3790DE" transform="translate(356,448)"/>
<path d="M0 0 C2.375 1.3125 2.375 1.3125 4 4 C4.32924499 7.69073017 4.22932778 11.30527466 4 15 C4.61746094 15.08636719 5.23492188 15.17273438 5.87109375 15.26171875 C13.57180454 16.53931004 19.72196727 18.96781972 25.5 24.3125 C27.47405874 27.84935524 28.37245764 30.93466453 28 35 C26.91946526 37.37717643 25.68341213 38.95950045 24 41 C19.19322204 40.79545626 16.49899234 39.8713513 12.5625 37.0625 C6.13477173 32.51951239 -0.18735061 31.3596189 -8 32 C-10.91927604 33.3961755 -12.72202996 34.72202996 -15 37 C-14.92284816 40.54898474 -14.6188403 42.37863896 -12.08203125 44.92578125 C-7.11308972 48.26989779 -1.57250888 50.21127863 3.98828125 52.38085938 C12.21528676 55.73676738 20.06674019 60.10904766 24.5 68.125 C24.9640625 68.93195313 25.428125 69.73890625 25.90625 70.5703125 C29.0976379 77.65975277 28.83906664 85.5077797 26.15625 92.69921875 C21.81342271 101.3408582 15.01113697 105.98111741 6 109 C5.34 109 4.68 109 4 109 C4.04640625 109.81984375 4.0928125 110.6396875 4.140625 111.484375 C4.19476562 113.10085938 4.19476562 113.10085938 4.25 114.75 C4.29640625 115.81734375 4.3428125 116.8846875 4.390625 117.984375 C4 121 4 121 2.171875 123.359375 C0 125 0 125 -3 125.5 C-6.73183062 124.87802823 -7.70304913 123.96444087 -10 121 C-10.390625 117.984375 -10.390625 117.984375 -10.25 114.75 C-10.21390625 113.67234375 -10.1778125 112.5946875 -10.140625 111.484375 C-10.09421875 110.66453125 -10.0478125 109.8446875 -10 109 C-11.11375 108.9175 -12.2275 108.835 -13.375 108.75 C-21.68977075 107.67570219 -29.394891 104.36944205 -35 98 C-37.29454862 94.16030079 -37.85102826 90.39408471 -37 86 C-34.8125 82.9375 -34.8125 82.9375 -32 81 C-27.64245102 81.30436032 -24.54854124 83.25352365 -20.875 85.5 C-15.28814743 88.89948136 -11.6952382 90.1666566 -5.125 90.25 C-3.91070313 90.27578125 -2.69640625 90.3015625 -1.4453125 90.328125 C2.26234712 89.97501456 4.10549037 89.30922276 7 87 C8.33660145 83.64407137 8.33660145 83.64407137 8 80 C3.99377971 74.74758593 -1.16916962 72.98151163 -7.1875 70.625 C-27.77093893 62.16127588 -27.77093893 62.16127588 -33 52 C-35.51845174 45.64390752 -36.26722632 38.94903087 -34.16015625 32.3828125 C-30.72393599 24.76990701 -25.56574309 19.20626258 -17.75 16.0625 C-14 15 -14 15 -10 15 C-10.04640625 14.25234375 -10.0928125 13.5046875 -10.140625 12.734375 C-10.43440289 4.71843554 -10.43440289 4.71843554 -8.375 1.3125 C-5.26794769 -0.40455522 -3.50031342 -0.58338557 0 0 Z " fill="#2F215C" transform="translate(517,227)"/>
<path d="M0 0 C4.53520336 1.99548948 6.77848731 4.9514468 9.6875 8.8125 C16.69527182 17.82819126 25.75876451 22.47760777 37 24 C52.31016409 25.31558875 66.73412335 21.6221446 78.73046875 11.75390625 C80.41154264 10.24168469 82.07420019 8.70853828 83.7109375 7.1484375 C90.86287758 0.43586575 90.86287758 0.43586575 95.9375 0.5 C100.63459106 0.68900366 103.40359839 1.85314859 107 5 C109.50134001 8.75201002 109.48370773 11.662754 109 16 C105.68900802 27.91957114 94.39157189 35.78639789 84.15625 41.62109375 C65.55679993 51.43475096 43.57500295 54.13203474 23.10546875 48.97265625 C6.83700738 43.87725137 -8.45860492 32.94744139 -17 18 C-18.19255158 14.28286555 -18.34196479 10.89839862 -18 7 C-13.54881587 -0.15368877 -7.93278688 -0.96001879 0 0 Z " fill="#322057" transform="translate(482,635)"/>
<path d="M0 0 C6.88867255 2.37263763 10.63833072 7.78847269 14 14 C16.62301329 21.86903986 15.89393853 33.05320166 13.10546875 40.81640625 C10.47693342 46.00846014 6.79813769 50.43446035 1.5 53 C-3.04233172 54.29780906 -6.56772624 55.04638929 -11.04296875 53.12109375 C-17.70351015 49.33470717 -21.32523446 44.49793378 -23.8125 37.3125 C-26.52839293 26.99522859 -25.28962445 17.6995632 -21 8 C-15.85855458 -0.12680082 -9.06300503 -1.21390054 0 0 Z " fill="#322158" transform="translate(597,546)"/>
<path d="M0 0 C5.52652332 2.36850999 8.4927738 6.66760224 11 12 C14.04380003 20.82276302 14.97225521 32.4488073 11.3125 41.25 C8.38608255 46.58762056 4.39063162 50.22700938 -1 53 C-6.52000338 53.8246573 -11.4480729 53.74825056 -16.5 51.3125 C-22.35249274 45.89894422 -26.0399115 40.28190561 -26.3984375 32.22265625 C-26.40632162 30.50260449 -26.39822463 28.78241303 -26.375 27.0625 C-26.38660156 26.20720703 -26.39820313 25.35191406 -26.41015625 24.47070312 C-26.37050862 15.80769641 -24.11131486 9.25682236 -18 3 C-12.34985605 -1.09855002 -6.73337087 -0.73871786 0 0 Z " fill="#322158" transform="translate(468,546)"/>
<path d="M0 0 C11.75437061 3.16784456 21.05865875 9.64812858 27.32080078 20.23242188 C36 35.72257053 36 35.72257053 36 39 C32.04 39 28.08 39 24 39 C23.48953125 37.97003906 22.9790625 36.94007813 22.453125 35.87890625 C17.18953882 25.48953698 11.10026758 16.12075464 4.22753906 6.73242188 C2.68873456 4.5607121 1.31722961 2.31187237 0 0 Z " fill="#3798E3" transform="translate(337,383)"/>
<path d="M0 0 C3.44634983 3.15139196 5.82897066 6.67478693 8.25 10.625 C13.97264446 19.72362696 20.64228661 27.72119571 27.87890625 35.66015625 C30.65217289 38.71943197 33.32986479 41.85060975 36 45 C24.21422963 41.63263704 13.35181485 35.70211774 3.0625 29.125 C2.46542236 28.7439209 1.86834473 28.3628418 1.25317383 27.97021484 C-2.86853419 25.26293163 -2.86853419 25.26293163 -4 23 C0.51998557 24.63133282 3.90372163 26.98748087 7.71875 29.85546875 C10.57863384 31.29030773 11.99873825 30.91411669 15 30 C15.28230186 26.56285105 15.38343096 24.5995466 13.49609375 21.6484375 C12.81675781 20.89820313 12.13742187 20.14796875 11.4375 19.375 C0 5.95989305 0 5.95989305 0 0 Z " fill="#3796E2" transform="translate(347,720)"/>
<path d="M0 0 C1.89453125 0.2265625 1.89453125 0.2265625 4 1 C5.01171875 2.9609375 5.01171875 2.9609375 5.6875 5.375 C5.91824219 6.16648437 6.14898437 6.95796875 6.38671875 7.7734375 C6.58910156 8.50820313 6.79148437 9.24296875 7 10 C7.33 10.99 7.66 11.98 8 13 C5.03 13 2.06 13 -1 13 C-2.32 10.36 -3.64 7.72 -5 5 C-3.68 4.34 -2.36 3.68 -1 3 C-0.67 2.01 -0.34 1.02 0 0 Z " fill="#378FDC" transform="translate(363,407)"/>
<path d="M0 0 C3.44634983 3.15139196 5.82897066 6.67478693 8.25 10.625 C13.97264446 19.72362696 20.64228661 27.72119571 27.87890625 35.66015625 C30.65217289 38.71943197 33.32986479 41.85060975 36 45 C33.69 44.34 31.38 43.68 29 43 C28.90589844 42.41089844 28.81179688 41.82179688 28.71484375 41.21484375 C27.83505476 38.48894016 26.67983899 37.4753475 24.5625 35.5625 C16.87526431 28.13608123 10.75041442 19.36796168 4.9375 10.4375 C4.55537354 9.85403809 4.17324707 9.27057617 3.77954102 8.66943359 C1.97873156 5.83917723 0.5307108 3.33939566 0 0 Z " fill="#38A4E9" transform="translate(347,720)"/>
<path d="M0 0 C0.33 0 0.66 0 1 0 C1.33 3.63 1.66 7.26 2 11 C2.66 10.01 3.32 9.02 4 8 C7.125 7.8125 7.125 7.8125 10 8 C10.33 7.01 10.66 6.02 11 5 C11.54372951 8.05847848 12 10.88772805 12 14 C10 16 10 16 7.125 16.375 C4 16 4 16 1.8203125 14.3671875 C-0.53410401 11.30543556 -0.41581122 9.56365798 -0.25 5.75 C-0.21390625 4.67234375 -0.1778125 3.5946875 -0.140625 2.484375 C-0.09421875 1.66453125 -0.0478125 0.8446875 0 0 Z " fill="#251961" transform="translate(507,336)"/>
<path d="M0 0 C4.22915217 -0.02908633 8.45827852 -0.04682792 12.6875 -0.0625 C13.88568359 -0.07087891 15.08386719 -0.07925781 16.31835938 -0.08789062 C18.05375977 -0.09272461 18.05375977 -0.09272461 19.82421875 -0.09765625 C20.88729248 -0.10289307 21.95036621 -0.10812988 23.0456543 -0.11352539 C25.8134509 -0.00716844 28.30792897 0.37105212 31 1 C25.95842852 3.99071229 20.63602555 3.32923084 14.9375 3.3125 C13.28524414 3.33666992 13.28524414 3.33666992 11.59960938 3.36132812 C10.01696289 3.36229492 10.01696289 3.36229492 8.40234375 3.36328125 C7.43804443 3.36626221 6.47374512 3.36924316 5.48022461 3.37231445 C2.6264926 2.94393161 1.75505581 2.23059078 0 0 Z " fill="#3A2E5D" transform="translate(615,335)"/>
<path d="M0 0 C0.33 0 0.66 0 1 0 C1.02505615 0.6297876 1.0501123 1.2595752 1.07592773 1.90844727 C1.19278427 4.79329341 1.31510021 7.67788395 1.4375 10.5625 C1.47681641 11.55314453 1.51613281 12.54378906 1.55664062 13.56445312 C1.73818917 17.76800018 1.92179174 21.90547006 2.59375 26.0625 C3.02916349 29.21087444 2.7613877 30.40972397 1 33 C0.34 32.67 -0.32 32.34 -1 32 C-0.814375 30.88625 -0.62875 29.7725 -0.4375 28.625 C-0.02687278 25.40748263 -0.07985617 22.58723887 -0.5 19.375 C-1.3020022 12.87776695 -0.60807372 6.49235632 0 0 Z " fill="#3D2857" transform="translate(431,283)"/>
<path d="M0 0 C5.21264037 1.08146066 9.94445157 2.0763477 14.51171875 4.9609375 C14.84171875 5.6209375 15.17171875 6.2809375 15.51171875 6.9609375 C14.64546875 6.6721875 13.77921875 6.3834375 12.88671875 6.0859375 C6.90777081 4.35290911 0.66882408 3.7636669 -5.48828125 2.9609375 C-3.6957593 0.59888516 -3.03672102 -0.04767223 0 0 Z " fill="#271C4E" transform="translate(648.48828125,336.0390625)"/>
<path d="M0 0 C3.38731138 1.48579795 5.78511129 3.44110404 8.5 5.9375 C13.55451232 10.72970231 13.55451232 10.72970231 19.625 13.9375 C22 15 22 15 23.3125 17.125 C23.539375 17.74375 23.76625 18.3625 24 19 C19.25764179 17.45514089 15.84478949 14.81433009 12 11.75 C11.39671875 11.28464844 10.7934375 10.81929688 10.171875 10.33984375 C6.22810226 7.22769265 3.09280301 3.95972506 0 0 Z " fill="#2E1250" transform="translate(429,361)"/>
<path d="M0 0 C1.66666667 1.66666667 3.33333333 3.33333333 5 5 C5.66 4.67 6.32 4.34 7 4 C7 4.66 7 5.32 7 6 C7.66 6 8.32 6 9 6 C8.649375 6.5775 8.29875 7.155 7.9375 7.75 C6.85082593 10.35801776 7.06934867 11.39417629 8 14 C4.084859 10.64416485 1.9204226 6.71933638 0 2 C0 1.34 0 0.68 0 0 Z " fill="#379DE9" transform="translate(302,693)"/>
<path d="M0 0 C3.48336459 3.14352414 5.58752783 6.44513045 7.8125 10.5625 C8.43769531 11.69816406 9.06289063 12.83382813 9.70703125 14.00390625 C11 17 11 17 10 20 C9.52949219 19.09636719 9.05898438 18.19273437 8.57421875 17.26171875 C7.94560122 16.07016014 7.31667891 14.87876228 6.6875 13.6875 C6.37876953 13.09259766 6.07003906 12.49769531 5.75195312 11.88476562 C4.44716109 9.42626274 3.28498682 7.27469385 1.26953125 5.33203125 C0 4 0 4 0 0 Z " fill="#331345" transform="translate(349,401)"/>
<path d="M0 0 C0.66 0 1.32 0 2 0 C2.33 1.32 2.66 2.64 3 4 C3.7425 3.649375 4.485 3.29875 5.25 2.9375 C8.21122875 1.9279902 9.12062561 2.12019116 12 3 C1.62642369 6.44419134 1.62642369 6.44419134 -4 6 C-3.01 5.67 -2.02 5.34 -1 5 C-0.67 3.35 -0.34 1.7 0 0 Z " fill="#41B0EF" transform="translate(563,773)"/>
<path d="M0 0 C0.93045933 2.55144824 1.08564091 3.74006478 0.22265625 6.359375 C-0.16019531 7.14828125 -0.54304687 7.9371875 -0.9375 8.75 C-1.50791016 9.94882812 -1.50791016 9.94882812 -2.08984375 11.171875 C-2.39019531 11.77515625 -2.69054687 12.3784375 -3 13 C-4.06546953 9.8035914 -4.07427838 7.34252724 -4 4 C-2.68 3.34 -1.36 2.68 0 2 C0 1.34 0 0.68 0 0 Z " fill="#251A4D" transform="translate(709,681)"/>
<path d="M0 0 C0.66 0.33 1.32 0.66 2 1 C1.4409112 4.24271506 0.5867822 5.93057424 -2 8 C-2.66 8 -3.32 8 -4 8 C-4.66 9.65 -5.32 11.3 -6 13 C-6.33 12.34 -6.66 11.68 -7 11 C-5.8203125 8.65234375 -5.8203125 8.65234375 -4.125 5.9375 C-3.57070313 5.03902344 -3.01640625 4.14054687 -2.4453125 3.21484375 C-1 1 -1 1 0 0 Z " fill="#301652" transform="translate(622,405)"/>
<path d="M0 0 C0.66 0.33 1.32 0.66 2 1 C1.54625 1.53625 1.0925 2.0725 0.625 2.625 C-1.16923829 4.98938198 -1.16923829 4.98938198 -1.9375 8.125 C-3 11 -3 11 -5.125 12.375 C-5.74375 12.58125 -6.3625 12.7875 -7 13 C-5.58832253 7.73829306 -3.25149768 4.27828642 0 0 Z " fill="#1D1345" transform="translate(424,228)"/>
<path d="M0 0 C0.66 0.33 1.32 0.66 2 1 C2 4.3 2 7.6 2 11 C1.01 11 0.02 11 -1 11 C-1.02688151 9.35425434 -1.04634123 7.70838587 -1.0625 6.0625 C-1.07410156 5.14597656 -1.08570313 4.22945313 -1.09765625 3.28515625 C-1 1 -1 1 0 0 Z " fill="#392B5D" transform="translate(676,358)"/>
<path d="M0 0 C-3.75 3.875 -3.75 3.875 -6 5 C-8.3494053 4.39239518 -10.68529088 3.72870472 -13 3 C-8.54370064 0.02913376 -5.32064558 -0.12092376 0 0 Z " fill="#321448" transform="translate(567,779)"/>
<path d="M0 0 C2.31 0 4.62 0 7 0 C5.35 3.3 3.7 6.6 2 10 C1.67 9.34 1.34 8.68 1 8 C1.93446535 5.96855359 2.93224776 3.96466413 4 2 C2.68 2 1.36 2 0 2 C0 1.34 0 0.68 0 0 Z " fill="#36A1E8" transform="translate(376,448)"/>
<path d="M0 0 C0.99 0 1.98 0 3 0 C3 5.61 3 11.22 3 17 C2.67 17 2.34 17 2 17 C1.34 11.39 0.68 5.78 0 0 Z " fill="#F8AF0E" transform="translate(543,297)"/>
<path d="M0 0 C1.95803507 -0.05389087 3.91648909 -0.09274217 5.875 -0.125 C7.51082031 -0.15980469 7.51082031 -0.15980469 9.1796875 -0.1953125 C12 0 12 0 14 2 C13 3 13 3 10.4375 3.0625 C9.2309375 3.0315625 9.2309375 3.0315625 8 3 C8 2.34 8 1.68 8 1 C5.36 1 2.72 1 0 1 C0 0.67 0 0.34 0 0 Z " fill="#4DA194" transform="translate(368,363)"/>
<path d="M0 0 C0.33 0 0.66 0 1 0 C2 6.625 2 6.625 2 10 C1.01 10.99 0.02 11.98 -1 13 C-0.67 8.71 -0.34 4.42 0 0 Z " fill="#41B2F2" transform="translate(613,568)"/>
<path d="M0 0 C2 3 2 3 2 7 C2.66 7.66 3.32 8.32 4 9 C2.02 9 0.04 9 -2 9 C-1.34 6.03 -0.68 3.06 0 0 Z " fill="#E8E6EB" transform="translate(617,326)"/>
<path d="M0 0 C1.32 0.33 2.64 0.66 4 1 C2.50260417 2.23697917 1.00520833 3.47395833 -0.4921875 4.7109375 C-1.71051161 5.75250992 -2.86660097 6.86660097 -4 8 C-3.40072174 4.64404172 -2.15377564 2.62198774 0 0 Z " fill="#321A4D" transform="translate(580,549)"/>
<path d="M0 0 C1.32 0.33 2.64 0.66 4 1 C1.525 4.465 1.525 4.465 -1 8 C-2 4 -2 4 -2 2 C-1.34 2 -0.68 2 0 2 C0 1.34 0 0.68 0 0 Z " fill="#3FACED" transform="translate(576,549)"/>
<path d="M0 0 C2.55934601 1.279673 2.6989233 2.24201036 3.6875 4.875 C3.95949219 5.57367187 4.23148437 6.27234375 4.51171875 6.9921875 C5 9 5 9 4 12 C1.24331998 8.04476345 0.4682121 4.77576339 0 0 Z " fill="#321343" transform="translate(359,685)"/>
<path d="M0 0 C0.66 0.33 1.32 0.66 2 1 C-0.475 4.465 -0.475 4.465 -3 8 C-3.99 7.34 -4.98 6.68 -6 6 C-4.02 4.02 -2.04 2.04 0 0 Z " fill="#F5A511" transform="translate(457,230)"/>
<path d="M0 0 C1 3 1 3 0.00390625 5.04296875 C-0.47175781 5.75066406 -0.94742188 6.45835937 -1.4375 7.1875 C-1.91058594 7.90292969 -2.38367188 8.61835937 -2.87109375 9.35546875 C-3.24363281 9.89816406 -3.61617187 10.44085937 -4 11 C-5 9 -5 9 -4.75 7.0625 C-3.89470251 4.7104319 -2.82504999 3.67296249 -1 2 C-0.67 1.34 -0.34 0.68 0 0 Z " fill="#40B2ED" transform="translate(672,699)"/>
<path d="M0 0 C1.231394 3.69418201 0.64432764 6.2056261 0 10 C-0.66 10 -1.32 10 -2 10 C-1.85950482 8.52031676 -1.71245174 7.04125484 -1.5625 5.5625 C-1.48128906 4.73878906 -1.40007812 3.91507813 -1.31640625 3.06640625 C-1 1 -1 1 0 0 Z " fill="#3FABE9" transform="translate(363,552)"/>
<path d="M0 0 C2.97 0 5.94 0 9 0 C8.01 0.495 8.01 0.495 7 1 C7 1.66 7 2.32 7 3 C5.02 3 3.04 3 1 3 C0.67 2.01 0.34 1.02 0 0 Z " fill="#3D3064" transform="translate(444,806)"/>
<path d="M0 0 C1.10844919 3.32534757 0.84454356 5.62182575 0 9 C-0.66 8.34 -1.32 7.68 -2 7 C-1.43181818 1.43181818 -1.43181818 1.43181818 0 0 Z " fill="#331A4F" transform="translate(364,484)"/>
<path d="M0 0 C-0.99897713 2.99693138 -1.65130253 4.02709413 -4 6 C-4.66 6 -5.32 6 -6 6 C-6.33 5.01 -6.66 4.02 -7 3 C-4.49955934 -0.00052879 -4.2621484 0 0 0 Z " fill="#382759" transform="translate(507,242)"/>
<path d="M0 0 C0.66 1.32 1.32 2.64 2 4 C0.35 5.98 -1.3 7.96 -3 10 C-3 6.13304322 -1.58090029 3.4911548 0 0 Z " fill="#41B4F0" transform="translate(480,583)"/>
<path d="M0 0 C0.66 0.33 1.32 0.66 2 1 C0.63016497 4.16115776 0.0109362 4.9927092 -3 7 C-3.66 6.67 -4.32 6.34 -5 6 C-3.35 4.02 -1.7 2.04 0 0 Z " fill="#221664" transform="translate(491,248)"/>
</svg>
