<?xml version="1.0" encoding="UTF-8"?>
<svg version="1.1" xmlns="http://www.w3.org/2000/svg" width="500" height="500">
<path d="M0 0 C1.06154297 0.94166016 1.06154297 0.94166016 2.14453125 1.90234375 C2.14453125 2.56234375 2.14453125 3.22234375 2.14453125 3.90234375 C2.80453125 3.90234375 3.46453125 3.90234375 4.14453125 3.90234375 C13.57371658 13.55274164 18.15230911 28.22847572 18.45703125 41.46484375 C18.2351136 48.67188347 17.73317451 56.52420888 14.14453125 62.90234375 C14.89476562 62.87914062 15.645 62.8559375 16.41796875 62.83203125 C35.05385283 62.50343884 35.05385283 62.50343884 42.14453125 68.90234375 C44.71512465 72.99922697 45.44687073 75.79671109 44.51953125 80.46484375 C43.49826118 84.1924795 42.04775623 87.52844493 40.14453125 90.90234375 C39.48453125 90.90234375 38.82453125 90.90234375 38.14453125 90.90234375 C37.87898437 91.47726563 37.6134375 92.0521875 37.33984375 92.64453125 C36.09812843 94.98999352 34.62862512 96.92075226 33.01953125 99.02734375 C30.2250124 103.22600507 29.23090673 106.38564284 29.55859375 111.42578125 C30.63806317 115.98833867 33.26291463 119.28878332 36.14453125 122.90234375 C48.94175275 139.69659768 57.51443603 157.26675934 62.14453125 177.90234375 C62.32999512 178.70333496 62.51545898 179.50432617 62.70654297 180.32958984 C64.24918303 187.72352836 64.51691427 195.05035049 64.51513672 202.58007812 C64.51949716 204.63626879 64.55591599 206.69028186 64.59375 208.74609375 C64.7932634 232.39859231 54.71108575 252.47780286 38.71875 269.4453125 C36.14453125 271.90234375 36.14453125 271.90234375 34.14453125 271.90234375 C34.14453125 272.56234375 34.14453125 273.22234375 34.14453125 273.90234375 C31.94902399 275.59072831 29.76783709 277.13550997 27.45703125 278.65234375 C26.77656738 279.1004541 26.09610352 279.54856445 25.39501953 280.01025391 C-5.11675617 299.68633733 -46.98513846 301.26875107 -81.85546875 293.90234375 C-102.63780263 288.79809141 -122.99770191 280.95732734 -137.85546875 264.90234375 C-139.12109375 262.640625 -139.12109375 262.640625 -139.85546875 260.90234375 C-140.51546875 260.90234375 -141.17546875 260.90234375 -141.85546875 260.90234375 C-141.85546875 260.24234375 -141.85546875 259.58234375 -141.85546875 258.90234375 C-142.51546875 258.90234375 -143.17546875 258.90234375 -143.85546875 258.90234375 C-158.56058283 238.69751701 -163.51400264 214.50687212 -160.48486328 189.890625 C-158.19395998 175.60644955 -153.55119349 162.15688075 -147.85546875 148.90234375 C-147.13230469 147.21238281 -147.13230469 147.21238281 -146.39453125 145.48828125 C-142.90208301 137.99869571 -138.21241989 131.37778466 -133.44140625 124.6640625 C-127.70414114 116.51220166 -127.70414114 116.51220166 -125.85546875 106.90234375 C-127.59844371 101.53268177 -131.00503956 97.12930678 -134.48828125 92.76171875 C-137.31120314 88.92254498 -138.13179449 86.19362857 -138.10546875 81.40234375 C-138.110625 80.46390625 -138.11578125 79.52546875 -138.12109375 78.55859375 C-137.85142107 75.86186699 -137.22869465 74.21285082 -135.85546875 71.90234375 C-135.19546875 71.90234375 -134.53546875 71.90234375 -133.85546875 71.90234375 C-133.85546875 71.24234375 -133.85546875 70.58234375 -133.85546875 69.90234375 C-127.47298465 65.03949872 -121.73635557 63.61638462 -113.83203125 63.48828125 C-113.08585541 63.4689151 -112.33967957 63.44954895 -111.57089233 63.42959595 C-109.20753098 63.3702231 -106.84411978 63.32358595 -104.48046875 63.27734375 C-102.86977143 63.23912491 -101.25909369 63.20007095 -99.6484375 63.16015625 C-95.71760859 63.06455699 -91.78668412 62.98037175 -87.85546875 62.90234375 C-88.06441772 62.00660645 -88.06441772 62.00660645 -88.27758789 61.09277344 C-91.81226439 44.92260811 -91.86283031 28.10024628 -82.8828125 13.75 C-79.87262865 9.46822447 -76.7523014 5.41840481 -72.85546875 1.90234375 C-72.19546875 1.90234375 -71.53546875 1.90234375 -70.85546875 1.90234375 C-70.85546875 1.24234375 -70.85546875 0.58234375 -70.85546875 -0.09765625 C-49.08171489 -17.19658095 -21.66085774 -15.91228537 0 0 Z " fill="#372B5F" transform="translate(286.85546875,100.09765625)"/>
<path d="M0 0 C12.97822976 -0.27869513 25.95574184 -0.49158619 38.93636036 -0.62174606 C44.96475621 -0.68423548 50.9910973 -0.76891022 57.01831055 -0.90527344 C62.84106641 -1.03617837 68.66185332 -1.10751524 74.48596764 -1.13852692 C76.70168739 -1.16060958 78.91730566 -1.20373645 81.13218117 -1.26876068 C99.3922449 -1.78325624 99.3922449 -1.78325624 104.7759552 2.62843323 C107.62269509 5.46163913 109.83257429 8.62027068 112 12 C112.95694522 13.17615114 113.92411398 14.34422731 114.91015625 15.49609375 C132.57962654 39.64330087 141.11069941 68.61836239 137.71582031 98.50146484 C134.76244524 117.08080696 124.97902006 134.43132189 109.9921875 145.91015625 C86.72374283 162.16161565 58.99317741 167.62737856 30.890625 163.34765625 C17.87876804 160.83252966 5.87065877 154.82968534 -4 146 C-4.73605469 145.35675781 -5.47210938 144.71351563 -6.23046875 144.05078125 C-16.31173283 134.6635801 -23.01355566 123.46374907 -26 110 C-26.22300781 109.01 -26.44601563 108.02 -26.67578125 107 C-29.73209799 90.69964406 -28.30925709 74.12444607 -25 58 C-24.74476563 56.73929687 -24.48953125 55.47859375 -24.2265625 54.1796875 C-20.36028716 37.75688489 -12.09746508 22.62098174 -4.02392578 7.92431641 C-2.63182907 5.30807742 -1.3224423 2.65199495 0 0 Z " fill="#419EE4" transform="translate(200,219)"/>
<path d="M0 0 C0.70769531 0.62777344 1.41539062 1.25554687 2.14453125 1.90234375 C2.14453125 2.56234375 2.14453125 3.22234375 2.14453125 3.90234375 C2.80453125 3.90234375 3.46453125 3.90234375 4.14453125 3.90234375 C13.57371658 13.55274164 18.15230911 28.22847572 18.45703125 41.46484375 C18.2351136 48.67188347 17.73317451 56.52420888 14.14453125 62.90234375 C14.89476562 62.87914062 15.645 62.8559375 16.41796875 62.83203125 C35.05385283 62.50343884 35.05385283 62.50343884 42.14453125 68.90234375 C44.71512465 72.99922697 45.44687073 75.79671109 44.51953125 80.46484375 C43.49826118 84.1924795 42.04775623 87.52844493 40.14453125 90.90234375 C39.48453125 90.90234375 38.82453125 90.90234375 38.14453125 90.90234375 C37.87898437 91.464375 37.6134375 92.02640625 37.33984375 92.60546875 C36.05122091 95.08164597 34.58322764 97.34079257 33.01953125 99.65234375 C32.48070312 100.4515625 31.941875 101.25078125 31.38671875 102.07421875 C30.97679687 102.6775 30.566875 103.28078125 30.14453125 103.90234375 C28.68390275 101.25495459 28.14453125 100.00786041 28.14453125 96.90234375 C29.13453125 95.41734375 29.13453125 95.41734375 30.14453125 93.90234375 C29.81453125 93.24234375 29.48453125 92.58234375 29.14453125 91.90234375 C28.15453125 92.39734375 28.15453125 92.39734375 27.14453125 92.90234375 C26.48453125 92.24234375 25.82453125 91.58234375 25.14453125 90.90234375 C25.94890625 90.22171875 26.75328125 89.54109375 27.58203125 88.83984375 C30.5964984 85.38423506 30.6872562 83.3647175 31.14453125 78.90234375 C30.10945106 80.20321697 29.07647767 81.50580689 28.05249023 82.81542969 C27.14022018 83.9761696 26.21609262 85.12766946 25.28149414 86.27050781 C22.82086415 89.36244253 20.93480582 92.09824594 19.63671875 95.84765625 C18.02367234 100.12770133 16.11874501 103.48745867 12.14453125 105.90234375 C7.29424808 106.86320277 2.45313607 106.80928584 -2.47265625 106.7890625 C-3.94078026 106.80528587 -5.40887772 106.82409217 -6.87693787 106.84532166 C-10.75437461 106.89313771 -14.63091364 106.90227329 -18.50860977 106.90073395 C-21.56469066 106.90283023 -24.62050356 106.92383928 -27.67650127 106.9451046 C-36.6657628 107.00630326 -45.65424842 106.99812518 -54.64361572 106.9710083 C-58.52737847 106.9604815 -62.41114875 106.95615023 -66.29492188 106.95117188 C-73.81512323 106.94068198 -81.33528976 106.92379093 -88.85546875 106.90234375 C-89.26394043 106.07556625 -89.67241211 105.24878876 -90.09326172 104.3969574 C-90.63096191 103.31390823 -91.16866211 102.23085907 -91.72265625 101.11499023 C-92.25487793 100.04071274 -92.78709961 98.96643524 -93.33544922 97.85960388 C-97.18093102 90.37806185 -102.10797227 83.96296611 -108.85546875 78.90234375 C-108.85546875 78.57234375 -108.85546875 78.24234375 -108.85546875 77.90234375 C-98.51392032 76.04105672 -82.34921353 73.28305409 -72.8671875 78.734375 C-69.91796875 81.08984375 -69.91796875 81.08984375 -67.31640625 83.57421875 C-59.40450613 91.05912743 -47.76692193 93.29746108 -37.23046875 93.27734375 C-36.35108643 93.27573242 -35.4717041 93.27412109 -34.56567383 93.27246094 C-21.34983659 93.02568466 -10.75514071 88.59473864 -0.85546875 79.90234375 C-2.0072023 77.43434328 -2.9033044 75.8545081 -4.85546875 73.90234375 C-3.53546875 73.57234375 -2.21546875 73.24234375 -0.85546875 72.90234375 C-0.85546875 72.24234375 -0.85546875 71.58234375 -0.85546875 70.90234375 C-1.51546875 70.57234375 -2.17546875 70.24234375 -2.85546875 69.90234375 C-2.85546875 69.57234375 -2.85546875 69.24234375 -2.85546875 68.90234375 C-6.30552003 69.98048478 -8.71753603 71.52606523 -11.48046875 73.77734375 C-22.02170852 81.71244675 -34.08619246 82.37333415 -46.85546875 80.90234375 C-54.86976258 79.01815983 -60.70481395 74.88839341 -66.796875 69.4765625 C-68.82072776 67.5986187 -68.82072776 67.5986187 -71.85546875 67.90234375 C-73.54296875 66.65234375 -73.54296875 66.65234375 -74.85546875 64.90234375 C-74.85546875 63.58234375 -74.85546875 62.26234375 -74.85546875 60.90234375 C-75.57734375 61.21171875 -76.29921875 61.52109375 -77.04296875 61.83984375 C-79.6804179 62.83621343 -82.06486818 63.52523556 -84.85546875 63.90234375 C-86.85546875 62.90234375 -86.85546875 62.90234375 -87.68945312 60.99511719 C-89.63699591 54.62930573 -90.40252755 48.79998754 -90.35546875 42.15234375 C-90.34902344 41.19223389 -90.34257812 40.23212402 -90.3359375 39.24291992 C-89.96977988 24.90134508 -84.41954916 14.12114199 -74.734375 3.59765625 C-72.85546875 1.90234375 -72.85546875 1.90234375 -70.85546875 1.90234375 C-70.85546875 1.24234375 -70.85546875 0.58234375 -70.85546875 -0.09765625 C-49.08171489 -17.19658095 -21.66085774 -15.91228537 0 0 Z " fill="#392A5C" transform="translate(286.85546875,100.09765625)"/>
<path d="M0 0 C0.495 1.98 0.495 1.98 1 4 C2.43791516 3.85831863 3.8753237 3.71148957 5.3125 3.5625 C6.51326172 3.44068359 6.51326172 3.44068359 7.73828125 3.31640625 C10.16087179 3.04734307 10.16087179 3.04734307 13 2 C13.33 1.34 13.66 0.68 14 0 C14 1.98 14 3.96 14 6 C15.7634375 6.804375 15.7634375 6.804375 17.5625 7.625 C20.5564466 9.10368567 22.84073813 10.63531643 25.25 12.9375 C34.3028547 20.86126815 44.5552605 21.97545087 56.1328125 21.484375 C66.24693085 20.70606352 73.59175502 16.77775605 81 10 C82.32 10 83.64 10 85 10 C85.33 9.01 85.66 8.02 86 7 C87.21333397 9.42666795 87 11.33499722 87 14 C86.34 14.66 85.68 15.32 85 16 C85.99 17.65 86.98 19.3 88 21 C83.04683485 25.68969892 78.38078029 29.49864148 72 32 C71.25878906 32.2990625 70.51757812 32.598125 69.75390625 32.90625 C56.99496065 37.20567629 41.1559591 36.74031402 29 31 C28.2059375 30.62617188 27.411875 30.25234375 26.59375 29.8671875 C23.46825164 28.25091951 20.67159177 26.61995053 18.07592773 24.22387695 C12.62959538 19.20070149 8.54790886 18.21787129 1.2109375 18.3359375 C0.06882813 18.39007813 -1.07328125 18.44421875 -2.25 18.5 C-3.40757812 18.52320313 -4.56515625 18.54640625 -5.7578125 18.5703125 C-10.62914523 18.6940646 -15.23529423 18.93148475 -20 20 C-19.53851563 20.3196875 -19.07703125 20.639375 -18.6015625 20.96875 C-13.41072145 24.99011303 -10.00765559 29.61574792 -6.5625 35.125 C-6.12566895 35.81787109 -5.68883789 36.51074219 -5.23876953 37.22460938 C-3.01460765 40.88669323 -1.7904455 43.75841661 -1 48 C7.29621256 47.89017502 15.59237461 47.777189 23.88849545 47.66066074 C27.74490061 47.60658207 31.60131281 47.55341039 35.45776367 47.50268555 C36.94775447 47.48295242 38.4377447 47.46317711 39.92773438 47.44335938 C40.66737993 47.43354916 41.40702549 47.42373894 42.16908455 47.41363144 C45.91581419 47.362475 49.66225344 47.30431182 53.40866089 47.23321533 C54.52678508 47.212027 54.52678508 47.212027 55.66749763 47.19041061 C57.17217538 47.16181211 58.67684843 47.13296597 60.18151665 47.10387039 C64.80647775 47.02043294 69.42850421 46.99155469 74.05417919 47.00054264 C77.09411593 47.00110757 80.13339568 46.97284769 83.17312813 46.93940544 C84.60554371 46.93043085 86.03810432 46.93418921 87.47044182 46.95163155 C95.26155952 47.23694879 95.26155952 47.23694879 102.28405762 44.45025635 C105.67679548 40.75855909 107.43628429 36.74941713 109.12402344 32.07519531 C110.55825763 28.67748332 112.71681497 26.28651017 115.125 23.5 C115.87007812 22.6234375 116.61515625 21.746875 117.3828125 20.84375 C117.91648437 20.2353125 118.45015625 19.626875 119 19 C120.28432364 22.85297092 119.58019149 24.31288651 118 28 C115.875 30.375 115.875 30.375 114 32 C114.99 32 115.98 32 117 32 C119.08559201 35.43509272 119.08559201 35.43509272 118.6875 38.0625 C118.3471875 39.0215625 118.3471875 39.0215625 118 40 C116.63106057 44.1068183 117.02852691 47.89111828 117.16015625 52.1875 C117 55 117 55 115 58 C114.36707617 60.11280345 114.36707617 60.11280345 114 62 C113.67 61.67 113.34 61.34 113 61 C112.67 61.66 112.34 62.32 112 63 C109.75 63.8125 109.75 63.8125 107 64 C106.32121292 63.51589157 105.64242584 63.03178314 104.94306946 62.53300476 C100.68938269 60.31731731 96.88833785 60.60438626 92.16088867 60.65942383 C90.68212753 60.65876671 90.68212753 60.65876671 89.17349243 60.65809631 C85.92144836 60.66018299 82.66992255 60.68350885 79.41796875 60.70703125 C77.16067283 60.71262762 74.90337326 60.71689752 72.64607239 60.71989441 C66.70958365 60.73133988 60.77331568 60.76080477 54.83691406 60.79400635 C48.77737413 60.82471348 42.71779847 60.83840114 36.65820312 60.85351562 C24.77203851 60.88567454 12.88603763 60.93686752 1 61 C0.74961975 61.53170807 0.4992395 62.06341614 0.24127197 62.61123657 C-0.91600559 65.06694666 -2.07518021 67.52175688 -3.234375 69.9765625 C-3.62802246 70.8126001 -4.02166992 71.6486377 -4.42724609 72.51000977 C-6.64964677 77.21264611 -8.92296751 81.88130555 -11.29559326 86.5100708 C-25.88458921 115.01725065 -31.13263669 148.73145769 -21.375 179.75 C-16.8684987 190.99918318 -8.77436033 199.88509055 0 208 C-2 209 -2 209 -4 208.4375 C-4.99 208.2209375 -4.99 208.2209375 -6 208 C-6.66 208.66 -7.32 209.32 -8 210 C-8.99 210 -9.98 210 -11 210 C-11 211.65 -11 213.3 -11 215 C-11.66 215 -12.32 215 -13 215 C-14.80163937 212.97694704 -16.47267896 210.9531973 -18.125 208.8125 C-18.61564941 208.17973145 -19.10629883 207.54696289 -19.61181641 206.89501953 C-26.89768607 197.35235947 -33.05054982 187.39954937 -37 176 C-37.3196875 175.10023438 -37.639375 174.20046875 -37.96875 173.2734375 C-42.74442911 156.86809536 -41.14706901 137.35604017 -37 121 C-36.6322897 119.44543607 -36.26513062 117.89074168 -35.8984375 116.3359375 C-31.0496925 96.3583874 -22.15864717 78.31729434 -13 60 C-14.93822596 60.03305502 -16.87585668 60.10249905 -18.8125 60.1875 C-19.89144531 60.22230469 -20.97039062 60.25710937 -22.08203125 60.29296875 C-25.20792627 60.70672053 -25.20792627 60.70672053 -26.71875 63.5 C-27.1415625 64.325 -27.564375 65.15 -28 66 C-30.6875 66.8125 -30.6875 66.8125 -33 67 C-33.33 68.65 -33.66 70.3 -34 72 C-37 71 -37 71 -39 68 C-39.66 68.99 -40.32 69.98 -41 71 C-42.22065145 68.38431831 -42.86258739 66.84149639 -43 64 C-41.984375 61.33203125 -41.984375 61.33203125 -40.5625 58.5 C-38.21577977 53.78084205 -37.26816974 51.19549077 -39 46 C-41.43188837 40.83111549 -44.3555354 36.39849176 -48 32 C-49.98014574 28.76552707 -50.27071506 26.27014144 -50.25 22.5 C-50.25515625 21.5615625 -50.2603125 20.623125 -50.265625 19.65625 C-49.99595232 16.95952324 -49.3732259 15.31050707 -48 13 C-47.34 13 -46.68 13 -46 13 C-46 12.34 -46 11.68 -46 11 C-39.6175159 6.13715497 -33.88088682 4.71404087 -25.9765625 4.5859375 C-25.23038666 4.56657135 -24.48421082 4.5472052 -23.71542358 4.5272522 C-21.35206223 4.46787935 -18.98865103 4.4212422 -16.625 4.375 C-15.01430268 4.33678116 -13.40362494 4.2977272 -11.79296875 4.2578125 C-7.86213984 4.16221324 -3.93121537 4.078028 0 4 C0 2.68 0 1.36 0 0 Z " fill="#31275C" transform="translate(199,159)"/>
<path d="M0 0 C11.33518607 6.49030815 17.94066744 14.89573814 21.734375 27.3359375 C24.30167696 38.72833993 21.78339304 48.87643866 16.0625 58.8046875 C10.77349011 67.12858164 4.35080282 72.38632767 -5.05859375 75.6171875 C-16.92637472 78.21202973 -30.09591029 77.9501978 -40.578125 71.38671875 C-49.26015007 65.70368972 -54.57585629 56.86030312 -57.25 46.87890625 C-59.0510395 33.19958241 -56.8553959 21.50404648 -48.578125 10.38671875 C-43.96111536 5.38734806 -38.82198404 2.01636797 -32.578125 -0.61328125 C-31.86269531 -0.97035156 -31.14726562 -1.32742187 -30.41015625 -1.6953125 C-21.36991396 -4.62559793 -8.60911288 -3.80993349 0 0 Z " fill="#FB9C19" transform="translate(268.578125,104.61328125)"/>
<path d="M0 0 C-0.61261674 3.16489395 -1.65696497 5.22933522 -3.546875 7.828125 C-4.3203125 8.90513672 -4.3203125 8.90513672 -5.109375 10.00390625 C-5.65078125 10.74511719 -6.1921875 11.48632812 -6.75 12.25 C-7.80947038 13.71196525 -8.8667769 15.17550116 -9.921875 16.640625 C-10.39206055 17.28547852 -10.86224609 17.93033203 -11.34667969 18.59472656 C-13.02680567 20.84516939 -13.02680567 20.84516939 -13.79347229 23.01856995 C-14.94184222 25.56337472 -15.90666461 27.13330559 -18 29 C-22.81389687 30.21596773 -27.62608466 30.06836902 -32.55859375 29.99609375 C-34.03098145 30.00338997 -35.50335533 30.01423868 -36.97569275 30.02842712 C-40.0756266 30.05103546 -43.17417209 30.04935552 -46.27410889 30.02752686 C-50.87614022 29.99524795 -55.47665693 30.01769544 -60.07861328 30.05126953 C-68.3153806 30.10337486 -76.55129946 30.09351142 -84.78814697 30.06866455 C-88.67190972 30.05813775 -92.55568 30.05380648 -96.43945312 30.04882812 C-103.95965448 30.03833823 -111.47982101 30.02144718 -119 30 C-119.40847168 29.1732225 -119.81694336 28.34644501 -120.23779297 27.49461365 C-120.77549316 26.41156448 -121.31319336 25.32851532 -121.8671875 24.21264648 C-122.39940918 23.13836899 -122.93163086 22.06409149 -123.47998047 20.95726013 C-127.32546227 13.4757181 -132.25250352 7.06062236 -139 2 C-139 1.67 -139 1.34 -139 1 C-128.65845157 -0.86128703 -112.49374478 -3.61928966 -103.01171875 1.83203125 C-100.0625 4.1875 -100.0625 4.1875 -97.4609375 6.671875 C-89.54903738 14.15678368 -77.91145318 16.39511733 -67.375 16.375 C-66.49561768 16.37338867 -65.61623535 16.37177734 -64.71020508 16.37011719 C-57.21422296 16.23014645 -50.93808142 14.97198413 -44 12 C-43.01386719 11.58427734 -43.01386719 11.58427734 -42.0078125 11.16015625 C-39.0980204 9.7052602 -37.22931805 8.2768128 -35.1328125 5.74609375 C-26.28435495 -4.31469695 -12.23645605 -2.64830019 0 0 Z " fill="#53AA9B" transform="translate(317,177)"/>
<path d="M0 0 C1.07894531 0.05800781 2.15789062 0.11601562 3.26953125 0.17578125 C4.35621094 0.22089844 5.44289062 0.26601562 6.5625 0.3125 C7.39394531 0.37050781 8.22539062 0.42851562 9.08203125 0.48828125 C7.83566402 4.45076445 6.38661812 8.10218609 4.5078125 11.8046875 C-2.12378468 25.09675674 -7.79157034 38.20978582 -11.91796875 52.48828125 C-12.42070312 54.22658203 -12.42070312 54.22658203 -12.93359375 56 C-13.68520866 58.8185559 -14.33006385 61.63156028 -14.91796875 64.48828125 C-15.12164062 65.37773437 -15.3253125 66.2671875 -15.53515625 67.18359375 C-20.33191942 91.82450042 -17.30283319 116.29599896 -3.63964844 137.46923828 C0.33105253 143.35202957 4.6186132 148.97043187 9.08203125 154.48828125 C-8.91975663 149.03319401 -21.08341756 136.6410732 -29.91796875 120.48828125 C-35.50878869 109.27936908 -37.29639194 98.74975491 -37.23046875 86.30078125 C-37.22309692 84.64876709 -37.22309692 84.64876709 -37.21557617 82.96337891 C-37.0935905 74.44940458 -36.26400574 66.70887053 -33.91796875 58.48828125 C-33.57765625 57.27527344 -33.23734375 56.06226563 -32.88671875 54.8125 C-27.65159152 37.78065025 -18.82842338 22.29817851 -7.96875 8.25 C-5.85573827 5.58141734 -5.85573827 5.58141734 -4.53515625 2.65234375 C-2.91796875 0.48828125 -2.91796875 0.48828125 0 0 Z " fill="#3A8DDB" transform="translate(176.91796875,218.51171875)"/>
<path d="M0 0 C1.15242188 0.01804687 2.30484375 0.03609375 3.4921875 0.0546875 C4.36101562 0.07789062 5.22984375 0.10109375 6.125 0.125 C6.125 1.775 6.125 3.425 6.125 5.125 C3.41620665 6.47939668 1.11566732 6.19001451 -1.875 6.125 C-1.87757813 6.73988281 -1.88015625 7.35476562 -1.8828125 7.98828125 C-2.00247585 10.48924524 -2.20521714 12.70946052 -2.875 15.125 C-5.6875 16.875 -5.6875 16.875 -8.875 18.125 C-11.51167226 20.4147417 -12.69767791 22.02668868 -13.2578125 25.49609375 C-13.44051091 29.59462811 -13.47610102 32.11963204 -11.32421875 35.71875 C-7.75429781 39.22604074 -3.70335806 40.64125008 0.90039062 42.44140625 C2.88671875 43.28125 2.88671875 43.28125 6.125 45.125 C7.08203125 47.84375 7.08203125 47.84375 7.125 50.125 C4.83910401 52.23505784 3.41738835 53.07951737 0.3125 53.5625 C-2.75721245 53.14116692 -3.9082678 52.64601929 -6.4375 51.0625 C-9.64775835 48.82797023 -9.64775835 48.82797023 -12.8125 49.375 C-13.493125 49.6225 -14.17375 49.87 -14.875 50.125 C-14.59211523 53.51961728 -14.13367941 54.86632059 -11.6875 57.3125 C-8.95908434 59.29291242 -8.95908434 59.29291242 -5.6875 59.875 C-2.875 61.125 -2.875 61.125 -2.05078125 63.0234375 C-1.55340541 65.03410577 -1.20481377 67.08015465 -0.875 69.125 C-2.525 69.125 -4.175 69.125 -5.875 69.125 C-5.545 67.145 -5.215 65.165 -4.875 63.125 C-5.865 62.63 -5.865 62.63 -6.875 62.125 C-6.875 62.785 -6.875 63.445 -6.875 64.125 C-10.53805234 64.87426071 -13.29855152 65.3630014 -16.875 64.125 C-17.205 65.115 -17.535 66.105 -17.875 67.125 C-19.525 67.125 -21.175 67.125 -22.875 67.125 C-23.205 68.115 -23.535 69.105 -23.875 70.125 C-22.555 70.785 -21.235 71.445 -19.875 72.125 C-24.10668267 72.125 -25.6691231 70.36223277 -28.73828125 67.59375 C-37.68340996 57.25861043 -39.65778727 45.35990332 -38.875 32.125 C-37.40152783 23.22173169 -32.8261987 14.0026545 -25.875 8.125 C-23.54166667 8.125 -21.20833333 8.125 -18.875 8.125 C-16.12170979 6.32937595 -14.34872539 5.07245078 -12.875 2.125 C-8.47765424 0.25906397 -4.7454797 -0.09684652 0 0 Z " fill="#FC9C16" transform="translate(249.875,102.875)"/>
<path d="M0 0 C4.55555556 0.55555556 4.55555556 0.55555556 6 2 C6.04063832 3.66617115 6.042721 5.33388095 6 7 C7.0725 7.226875 8.145 7.45375 9.25 7.6875 C13.42252262 9.14788292 14.86219435 10.16976488 17 14 C16.75 16.8125 16.75 16.8125 16 19 C14.25 19.6875 14.25 19.6875 12 20 C11.443125 19.54625 10.88625 19.0925 10.3125 18.625 C6.87520616 16.20960433 3.14850048 16.03203475 -1 16 C-1.66 16.33 -2.32 16.66 -3 17 C-2.94770732 19.44089343 -2.94770732 19.44089343 -2 22 C0.55276054 23.45001281 0.55276054 23.45001281 3.6875 24.375 C10.1389264 26.7942849 13.91622802 29.83245603 17 36 C17.4855359 42.43335062 16.16260654 45.40487215 12.125 50.25 C9.717807 52.23239423 8.06502278 52.65944191 5 53 C5 55.31 5 57.62 5 60 C2.625 60.625 2.625 60.625 0 61 C-2 59 -2 59 -2.125 55.875 C-2.08375 54.92625 -2.0425 53.9775 -2 53 C-2.845625 52.95875 -3.69125 52.9175 -4.5625 52.875 C-9.13571949 51.71090777 -11.66547105 49.22600877 -15 46 C-14.67 44.35 -14.34 42.7 -14 41 C-11.9375 40.25 -11.9375 40.25 -9 40 C-7.23938506 40.9923466 -5.47978368 41.98958065 -3.76953125 43.06640625 C-1.09488232 44.4775345 1.05120104 44.40210895 4 44 C4.99 43.34 5.98 42.68 7 42 C7.03143382 39.57627441 7.03143382 39.57627441 6 37 C2.95792716 35.28664727 2.95792716 35.28664727 -0.75 34.0625 C-10.35131301 30.29737398 -10.35131301 30.29737398 -13 25 C-13.91091781 20.60573249 -14.00506316 16.84372514 -11.8203125 12.8359375 C-9.4593473 9.86332329 -7.76938596 8.25088673 -4.125 7.0625 C-3.42375 7.041875 -2.7225 7.02125 -2 7 C-2.04125 6.21625 -2.0825 5.4325 -2.125 4.625 C-2 2 -2 2 0 0 Z " fill="#3E2541" transform="translate(249,111)"/>
<path d="M0 0 C1.21333397 2.42666795 1 4.33499722 1 7 C0.34 7.66 -0.32 8.32 -1 9 C-0.01 10.65 0.98 12.3 2 14 C-2.95316515 18.68969892 -7.61921971 22.49864148 -14 25 C-14.74121094 25.2990625 -15.48242188 25.598125 -16.24609375 25.90625 C-30.41450831 30.68062995 -46.2297511 29.15899947 -59.51171875 22.796875 C-64.16988458 20.36384954 -68.09459319 17.50485227 -72 14 C-70.68 12.68 -69.36 11.36 -68 10 C-67.01 10.33 -66.02 10.66 -65 11 C-64.67 10.67 -64.34 10.34 -64 10 C-63.34 10.66 -62.68 11.32 -62 12 C-62.33 12.61875 -62.66 13.2375 -63 13.875 C-64.14193235 15.91018344 -64.14193235 15.91018344 -64 18 C-63.01 18 -62.02 18 -61 18 C-60.67 17.01 -60.34 16.02 -60 15 C-60.66 14.67 -61.32 14.34 -62 14 C-62 10 -62 10 -60 7 C-59.33613281 7.33773437 -58.67226562 7.67546875 -57.98828125 8.0234375 C-57.10527344 8.46945313 -56.22226563 8.91546875 -55.3125 9.375 C-54.44238281 9.81585938 -53.57226562 10.25671875 -52.67578125 10.7109375 C-51.79277344 11.13632813 -50.90976563 11.56171875 -50 12 C-49.26136719 12.37511719 -48.52273437 12.75023437 -47.76171875 13.13671875 C-37.36150624 16.38770456 -24.43611791 14.89457391 -14.640625 10.51171875 C-10.96661931 8.40840484 -8.11719406 5.85190094 -5 3 C-3.68 3 -2.36 3 -1 3 C-0.67 2.01 -0.34 1.02 0 0 Z " fill="#302457" transform="translate(285,166)"/>
<path d="M0 0 C2.0625 1.6875 2.0625 1.6875 4 4 C8.18616045 8.50817279 11.07253342 10.69920893 17.26953125 11.3359375 C28.87306965 11.46387067 34.27543591 8.87278534 42.82421875 1.29296875 C45 0 45 0 47.64453125 0.17578125 C50 1 50 1 52 3 C52.52617972 6.35439569 52.6764424 8.82866041 50.9375 11.83984375 C45.06415712 19.13364184 37.15854018 23.357779 28 25 C17.73328091 25.97778277 8.5465881 25.23835836 0.16796875 18.8359375 C-8.83055673 10.93165332 -8.83055673 10.93165332 -9.3125 5.4375 C-9.209375 4.303125 -9.10625 3.16875 -9 2 C-5.50875983 -0.32749345 -4.10777749 -0.50299316 0 0 Z " fill="#2D255D" transform="translate(236,310)"/>
<path d="M0 0 C0.33 0 0.66 0 1 0 C1.33 1.65 1.66 3.3 2 5 C2.556875 4.319375 3.11375 3.63875 3.6875 2.9375 C6 1 6 1 8.6875 1.125 C11 2 11 2 12 4 C12.99 4 13.98 4 15 4 C20.48915868 13.31196562 19.39389069 23.59219601 19 34 C18.67 33.34 18.34 32.68 18 32 C16.02 32.66 14.04 33.32 12 34 C12 35.98 12 37.96 12 40 C10.515 40.495 10.515 40.495 9 41 C9.33 42.65 9.66 44.3 10 46 C9.01 46.495 9.01 46.495 8 47 C7.85714286 39.57142857 7.85714286 39.57142857 9 36 C8.34 36 7.68 36 7 36 C7 38.64 7 41.28 7 44 C6.34 44 5.68 44 5 44 C4.34 46.31 3.68 48.62 3 51 C2.34 51 1.68 51 1 51 C1.93735532 48.1209801 2.87772778 45.28769934 4.0625 42.5 C8.37647028 30.99607926 5.91333743 19.86470388 1 9 C0.4328125 8.26136719 -0.134375 7.52273437 -0.71875 6.76171875 C-1.1415625 6.18035156 -1.564375 5.59898438 -2 5 C-1.1875 2.25 -1.1875 2.25 0 0 Z " fill="#362555" transform="translate(284,112)"/>
<path d="M0 0 C3.64313814 3.0095489 5.72606143 5.23427404 6.203125 10.05078125 C6.3082244 15.12182749 5.97729313 18.68805822 3 23 C-0.08576489 25.65718643 -1.5215747 26.00824871 -5.625 25.9375 C-9 25 -9 25 -10.875 23.125 C-12.78166607 19.52351964 -13.15998347 16.64241365 -13.1875 12.625 C-13.20167969 11.68914062 -13.21585937 10.75328125 -13.23046875 9.7890625 C-12.90822705 5.88939177 -11.93822273 3.0424697 -9.3125 0.125 C-5.81965231 -1.5742232 -3.69090114 -1.03604243 0 0 Z " fill="#2F245C" transform="translate(293,267)"/>
<path d="M0 0 C3.92483946 3.92483946 5.15318585 7.35389399 5.3125 12.8125 C5.26326033 17.63095322 4.29683195 20.33685339 1 24 C-1.57106586 25.9711505 -2.73405066 26.01108122 -6 25.875 C-9.43706266 24.87252339 -10.7924151 23.77992173 -13 21 C-14.91242722 15.26271833 -14.7428439 9.1171051 -12.75 3.4375 C-9.14683039 -1.58120053 -5.87357282 -1.57327843 0 0 Z " fill="#2F255D" transform="translate(230,267)"/>
<path d="M0 0 C1.37562854 1.28965176 2.70766393 2.62689293 4 4 C4 4.66 4 5.32 4 6 C6.31 6 8.62 6 11 6 C11.33 6.99 11.66 7.98 12 9 C10.35 9 8.7 9 7 9 C6.88205078 9.90492187 6.88205078 9.90492187 6.76171875 10.828125 C5.74512146 13.72673061 4.451668 14.24695625 1.8125 15.75 C-6.01709111 20.70874103 -9.67042931 27.53897331 -13 36 C-13.33 34.68 -13.66 33.36 -14 32 C-16.475 32.495 -16.475 32.495 -19 33 C-18.34 31.35 -17.68 29.7 -17 28 C-15.68 28.33 -14.36 28.66 -13 29 C-13.20625 28.113125 -13.4125 27.22625 -13.625 26.3125 C-14.02550239 22.7747289 -13.56683516 21.13367033 -12 18 C-13.65 17.67 -15.3 17.34 -17 17 C-16.67 16.01 -16.34 15.02 -16 14 C-15.0409375 13.5978125 -15.0409375 13.5978125 -14.0625 13.1875 C-13.381875 12.795625 -12.70125 12.40375 -12 12 C-11.79375 11.0925 -11.5875 10.185 -11.375 9.25 C-9.22139531 4.15966164 -4.75769047 2.47540353 0 0 Z " fill="#352455" transform="translate(226,94)"/>
<path d="M0 0 C12.86815835 -0.35671486 23.44766374 -0.38418583 35 6 C33.9024777 8.99324263 33.32317108 9.84610901 30.375 11.25 C29.59125 11.4975 28.8075 11.745 28 12 C27.34 11.01 26.68 10.02 26 9 C25.54625 9.474375 25.0925 9.94875 24.625 10.4375 C21.07882737 13.84728137 17.69020027 13.07564839 13 13 C13 12.34 13 11.68 13 11 C12.30132812 11.08378906 11.60265625 11.16757813 10.8828125 11.25390625 C9.97273437 11.35574219 9.06265625 11.45757812 8.125 11.5625 C7.22007812 11.66691406 6.31515625 11.77132812 5.3828125 11.87890625 C3 12 3 12 1 11 C1 8.69 1 6.38 1 4 C3.31 3.34 5.62 2.68 8 2 C5.36 1.67 2.72 1.34 0 1 C0 0.67 0 0.34 0 0 Z " fill="#413466" transform="translate(243,88)"/>
<path d="M0 0 C0.66 0.66 1.32 1.32 2 2 C2.680625 2.165 3.36125 2.33 4.0625 2.5 C5.0215625 2.7475 5.0215625 2.7475 6 3 C6.33 3.66 6.66 4.32 7 5 C6.34 5.66 5.68 6.32 5 7 C5.66 9.31 6.32 11.62 7 14 C7 12.02 7 10.04 7 8 C7.99 7.67 8.98 7.34 10 7 C10 6.34 10 5.68 10 5 C12.375 4.875 12.375 4.875 15 5 C17 7 17 7 17 10 C17.99 10.33 18.98 10.66 20 11 C19.21302675 14.41021743 18.12880057 17.68885166 17 21 C9.63188847 19.87876564 4.98226658 15.33749217 0 10 C-1.29296875 7.7109375 -1.29296875 7.7109375 -2 6 C-2.66 6 -3.32 6 -4 6 C-4 5.34 -4 4.68 -4 4 C-4.66 4 -5.32 4 -6 4 C-4.60804085 1.2160817 -2.84424221 1.02101003 0 0 Z " fill="#30235A" transform="translate(149,355)"/>
<path d="M0 0 C1.32 0 2.64 0 4 0 C7.07692308 5.41538462 7.07692308 5.41538462 6.6875 8.375 C6.460625 8.91125 6.23375 9.4475 6 10 C5.34 9.67 4.68 9.34 4 9 C4.33 10.65 4.66 12.3 5 14 C4.34 14 3.68 14 3 14 C3 14.66 3 15.32 3 16 C2.07767578 15.98259766 2.07767578 15.98259766 1.13671875 15.96484375 C-0.07564453 15.95130859 -0.07564453 15.95130859 -1.3125 15.9375 C-2.11300781 15.92589844 -2.91351563 15.91429687 -3.73828125 15.90234375 C-6.16861334 15.90342145 -6.16861334 15.90342145 -9 17 C-9.66 16.67 -10.32 16.34 -11 16 C-11.33 16.99 -11.66 17.98 -12 19 C-13.98 18.67 -15.96 18.34 -18 18 C-18 17.34 -18 16.68 -18 16 C-18.66 16 -19.32 16 -20 16 C-20.33 14.02 -20.66 12.04 -21 10 C-15.4851752 9.74932615 -15.4851752 9.74932615 -13.125 10.96875 C-10.60420536 12.19207681 -8.534413 12.40517792 -5.75 12.625 C-4.85796875 12.69976562 -3.9659375 12.77453125 -3.046875 12.8515625 C-2.03367188 12.92503906 -2.03367188 12.92503906 -1 13 C-0.979375 11.72125 -0.95875 10.4425 -0.9375 9.125 C-0.92589844 8.40570313 -0.91429687 7.68640625 -0.90234375 6.9453125 C-0.87350758 4.91814596 -0.87350758 4.91814596 -2 3 C-1.34 3 -0.68 3 0 3 C0 2.01 0 1.02 0 0 Z " fill="#33245B" transform="translate(258,143)"/>
<path d="M0 0 C0.66 0.33 1.32 0.66 2 1 C2 3.31 2 5.62 2 8 C2.66 8 3.32 8 4 8 C4.66 9.65 5.32 11.3 6 13 C7.0725 12.95875 8.145 12.9175 9.25 12.875 C12.65747485 12.9885825 14.20739631 13.21273364 17 15 C16.6875 16.9375 16.6875 16.9375 16 19 C15.01 19.33 14.02 19.66 13 20 C13 19.34 13 18.68 13 18 C9.04 18.495 9.04 18.495 5 19 C5 18.34 5 17.68 5 17 C4.21625 16.855625 3.4325 16.71125 2.625 16.5625 C-1.51351351 15.67567568 -1.51351351 15.67567568 -3.125 13.4375 C-4.415447 9.84268336 -4.18469506 6.81703121 -4 3 C-3 1 -3 1 0 0 Z M10 20 C13 21 13 21 13 21 Z " fill="#33235B" transform="translate(241,124)"/>
<path d="M0 0 C0.66 0.33 1.32 0.66 2 1 C1.34 3.31 0.68 5.62 0 8 C-0.66 7.34 -1.32 6.68 -2 6 C-2.99 6.99 -3.98 7.98 -5 9 C-3.35 9.33 -1.7 9.66 0 10 C-0.33 13.63 -0.66 17.26 -1 21 C-2.32 20.67 -3.64 20.34 -5 20 C-5.33 20.99 -5.66 21.98 -6 23 C-7.65 22.67 -9.3 22.34 -11 22 C-11.66 22.99 -12.32 23.98 -13 25 C-13.66 25 -14.32 25 -15 25 C-13.22758276 14.56858602 -7.229034 7.40227883 0 0 Z " fill="#3D2F61" transform="translate(214,102)"/>
<path d="M0 0 C1.67542976 0.28604898 3.34385343 0.61781233 5 1 C3.68 1.33 2.36 1.66 1 2 C1.33 3.98 1.66 5.96 2 8 C3.32 7.67 4.64 7.34 6 7 C6 7.99 6 8.98 6 10 C7.32 10 8.64 10 10 10 C10.33 9.34 10.66 8.68 11 8 C14.98375661 6.82830688 18.87439224 6.91910573 23 7 C22.67 8.32 22.34 9.64 22 11 C21.34 11 20.68 11 20 11 C19.34 13.97 18.68 16.94 18 20 C15.625 20.625 15.625 20.625 13 21 C11 19 11 19 10.875 15.875 C10.91625 14.92625 10.9575 13.9775 11 13 C10.154375 12.95875 9.30875 12.9175 8.4375 12.875 C3.86428051 11.71090777 1.33452895 9.22600877 -2 6 C-1.125 1.125 -1.125 1.125 0 0 Z " fill="#3D2747" transform="translate(236,151)"/>
<path d="M0 0 C-0.33 1.65 -0.66 3.3 -1 5 C-2.32 5.33 -3.64 5.66 -5 6 C-5 6.66 -5 7.32 -5 8 C-4.34 8 -3.68 8 -3 8 C-3 8.99 -3 9.98 -3 11 C-3.99 10.67 -4.98 10.34 -6 10 C-7.64079242 11.64079242 -7.60112342 13.77768765 -8 16 C-9.98 16.33 -11.96 16.66 -14 17 C-14.33 14.69 -14.66 12.38 -15 10 C-14.01 10 -13.02 10 -12 10 C-11.97873047 9.07767578 -11.97873047 9.07767578 -11.95703125 8.13671875 C-11.56949153 1.56949153 -11.56949153 1.56949153 -8.8125 -1.1875 C-5.21458714 -2.22689705 -3.37069617 -1.48937738 0 0 Z " fill="#30225A" transform="translate(326,359)"/>
<path d="M0 0 C2.6875 0.3125 2.6875 0.3125 5 1 C5.33 2.32 5.66 3.64 6 5 C4.35 5.33 2.7 5.66 1 6 C1 7.98 1 9.96 1 12 C-2.70082097 12.75698611 -5.38592751 13.16166616 -9 12 C-9.66 12 -10.32 12 -11 12 C-11 11.34 -11 10.68 -11 10 C-10.34 10 -9.68 10 -9 10 C-9 9.34 -9 8.68 -9 8 C-8.34 7.67 -7.68 7.34 -7 7 C-7 6.01 -7 5.02 -7 4 C-6.401875 3.896875 -5.80375 3.79375 -5.1875 3.6875 C-2.90825352 3.17782476 -2.90825352 3.17782476 -1.5625 1.375 C-0.7890625 0.694375 -0.7890625 0.694375 0 0 Z " fill="#322359" transform="translate(148,246)"/>
<path d="M0 0 C1.32 0.33 2.64 0.66 4 1 C4.061875 1.94875 4.12375 2.8975 4.1875 3.875 C4.455625 4.90625 4.72375 5.9375 5 7 C7.45704762 8.23290201 7.45704762 8.23290201 10 9 C10.33 9.99 10.66 10.98 11 12 C10.505 12.350625 10.01 12.70125 9.5 13.0625 C7.26936034 15.94374289 7.80019379 18.47009026 8 22 C5 20 5 20 4.25 16.5 C4 13 4 13 5 11 C3.35 10.67 1.7 10.34 0 10 C0 9.34 0 8.68 0 8 C-1.65 8.66 -3.3 9.32 -5 10 C-5.33 9.34 -5.66 8.68 -6 8 C-4.68 7.67 -3.36 7.34 -2 7 C-2 6.34 -2 5.68 -2 5 C-1.34 5 -0.68 5 0 5 C0 3.35 0 1.7 0 0 Z " fill="#312258" transform="translate(149,348)"/>
<path d="M0 0 C8.73302329 2.96922792 12.90875811 8.97487169 17 17 C17 17.66 17 18.32 17 19 C15.02 19 13.04 19 11 19 C10.484375 17.865625 9.96875 16.73125 9.4375 15.5625 C7.28480174 11.20270316 4.48522503 7.61453607 1.390625 3.8828125 C0 2 0 2 0 0 Z " fill="#468CD3" transform="translate(165,187)"/>
<path d="M0 0 C11.13861386 3.49009901 11.13861386 3.49009901 15 6 C15.875 8.6875 15.875 8.6875 16 11 C13.61223142 13.20409407 12.26843543 13.96644557 9 14.375 C6 14 6 14 2 11 C5.96 11 9.92 11 14 11 C10.5797509 7.15811388 10.5797509 7.15811388 8 6 C7.67 6.66 7.34 7.32 7 8 C5.68 8 4.36 8 3 8 C3 7.34 3 6.68 3 6 C0.525 5.01 0.525 5.01 -2 4 C-1.34 2.68 -0.68 1.36 0 0 Z " fill="#F99E20" transform="translate(241,142)"/>
<path d="M0 0 C2.93174079 0.75674898 4.3821042 2.15682387 6.1640625 4.55859375 C5.1121875 4.22859375 4.0603125 3.89859375 2.9765625 3.55859375 C-0.22467107 2.71892593 -2.5770383 2.36108471 -5.8359375 2.55859375 C-5.1965625 2.68234375 -4.5571875 2.80609375 -3.8984375 2.93359375 C-3.2178125 3.13984375 -2.5371875 3.34609375 -1.8359375 3.55859375 C-1.5059375 4.21859375 -1.1759375 4.87859375 -0.8359375 5.55859375 C-1.4959375 5.55859375 -2.1559375 5.55859375 -2.8359375 5.55859375 C-2.5059375 6.21859375 -2.1759375 6.87859375 -1.8359375 7.55859375 C0.8040625 7.55859375 3.4440625 7.55859375 6.1640625 7.55859375 C6.8240625 8.87859375 7.4840625 10.19859375 8.1640625 11.55859375 C7.1740625 13.04359375 7.1740625 13.04359375 6.1640625 14.55859375 C4.9575 13.69234375 4.9575 13.69234375 3.7265625 12.80859375 C1.04679019 10.98147627 -1.63210062 9.80160898 -4.6484375 8.62109375 C-6.9765625 7.640625 -6.9765625 7.640625 -8.8359375 6.55859375 C-9.8984375 3.80859375 -9.8984375 3.80859375 -9.8359375 1.55859375 C-6.06527022 -0.95518444 -4.32859206 -0.57103576 0 0 Z " fill="#EA9D31" transform="translate(254.8359375,126.44140625)"/>
<path d="M0 0 C1.32 0.33 2.64 0.66 4 1 C5.125 5.75 5.125 5.75 4 8 C3.9175 8.763125 3.835 9.52625 3.75 10.3125 C2.73535563 13.94830899 0.83228035 15.5821997 -2 18 C-2.66 18 -3.32 18 -4 18 C-4 18.66 -4 19.32 -4 20 C-4.99 20.33 -5.98 20.66 -7 21 C-7.625 19.1875 -7.625 19.1875 -8 17 C-7.01 15.515 -7.01 15.515 -6 14 C-4.68 14.66 -3.36 15.32 -2 16 C-2 15.01 -2 14.02 -2 13 C-2.66 13 -3.32 13 -4 13 C-4 11 -4 11 -2 9 C-0.45473667 6.33871316 0 5.15084005 0 2 C0 1.34 0 0.68 0 0 Z " fill="#35245A" transform="translate(325,354)"/>
<path d="M0 0 C1.8272911 2.74093665 2.93698178 5.13825324 4.125 8.1875 C4.47820312 9.08855469 4.83140625 9.98960937 5.1953125 10.91796875 C5.46085938 11.60503906 5.72640625 12.29210937 6 13 C5.01 13.99 4.02 14.98 3 16 C2.67 15.34 2.34 14.68 2 14 C1.34 14 0.68 14 0 14 C-1.15569065 19.06165916 -1.15569065 19.06165916 0.5 23.8125 C1.2425 24.8953125 1.2425 24.8953125 2 26 C1.67 26.66 1.34 27.32 1 28 C-0.15037471 26.3990869 -1.29514816 24.79414775 -2.4375 23.1875 C-3.07558594 22.29417969 -3.71367187 21.40085937 -4.37109375 20.48046875 C-6 18 -6 18 -7 15 C-5.68 15.33 -4.36 15.66 -3 16 C-2.27005441 12.40288072 -1.59025242 8.79939671 -0.9375 5.1875 C-0.67259766 3.72376953 -0.67259766 3.72376953 -0.40234375 2.23046875 C-0.26957031 1.49441406 -0.13679687 0.75835937 0 0 Z " fill="#2B275E" transform="translate(175,333)"/>
<path d="M0 0 C0.33 0 0.66 0 1 0 C1.24234375 1.0621875 1.4846875 2.124375 1.734375 3.21875 C3.48741968 10.67690186 5.33966987 17.22161088 9 24 C8.67 24.66 8.34 25.32 8 26 C7.67 25.01 7.34 24.02 7 23 C6.34 23 5.68 23 5 23 C5 21.68 5 20.36 5 19 C4.34 19 3.68 19 3 19 C2.67 18.01 2.34 17.02 2 16 C1.34 15.67 0.68 15.34 0 15 C-0.66 16.32 -1.32 17.64 -2 19 C-3.60031344 15.79937313 -2.03173691 13.27728194 -1 10 C-1.66 10.66 -2.32 11.32 -3 12 C-4 11 -4 11 -4.3125 8.8125 C-3.89534727 5.05812545 -2.27122569 2.95947589 0 0 Z " fill="#272962" transform="translate(140,317)"/>
<path d="M0 0 C0.99 0 1.98 0 3 0 C2.96519531 1.03898438 2.93039063 2.07796875 2.89453125 3.1484375 C2.66237607 13.01384805 3.1195706 21.28895842 8.25 30 C8.8275 30.99 9.405 31.98 10 33 C9.67 33.66 9.34 34.32 9 35 C6 35 6 35 4.3125 33.875 C2.46478632 31.23540902 2.79053605 29.14195927 3 26 C2.34 25.67 1.68 25.34 1 25 C1.020625 23.865625 1.04125 22.73125 1.0625 21.5625 C1.41577477 18.18424326 1.41577477 18.18424326 0 17 C-0.07325168 14.13732433 -0.09238205 11.299281 -0.0625 8.4375 C-0.05798828 7.63119141 -0.05347656 6.82488281 -0.04882812 5.99414062 C-0.03700518 3.99606244 -0.01906914 1.99802217 0 0 Z " fill="#402545" transform="translate(209,133)"/>
<path d="M0 0 C3 1 3 1 5 4 C5.23046875 6.62890625 5.23046875 6.62890625 5.1875 9.5625 C5.17783203 11.01849609 5.17783203 11.01849609 5.16796875 12.50390625 C5 15 5 15 4 17 C5.32 17.66 6.64 18.32 8 19 C7.34 19 6.68 19 6 19 C6 19.66 6 20.32 6 21 C5.38125 21.268125 4.7625 21.53625 4.125 21.8125 C1.7004767 22.95556848 1.7004767 22.95556848 0 26 C-0.99 26.33 -1.98 26.66 -3 27 C-2.67 25.68 -2.34 24.36 -2 23 C-4.62187494 24.04874998 -5.79371361 24.64931313 -7.25 27.125 C-7.4975 27.74375 -7.745 28.3625 -8 29 C-8 27.02 -8 25.04 -8 23 C-7.0925 22.5875 -6.185 22.175 -5.25 21.75 C-1.01391659 19.46903201 1.46334132 17.60997605 3 13 C3.39741243 7.73428531 2.6667422 4.5556846 0 0 Z " fill="#E79732" transform="translate(262,141)"/>
<path d="M0 0 C0.66 0.66 1.32 1.32 2 2 C2.680625 2.165 3.36125 2.33 4.0625 2.5 C5.0215625 2.7475 5.0215625 2.7475 6 3 C6.33 3.66 6.66 4.32 7 5 C6.34 5.66 5.68 6.32 5 7 C6.00193437 10.79303725 6.81024227 13.71536341 9 17 C5.84164893 15.60249952 3.67727175 13.94801766 1.25 11.5 C0.63640625 10.8915625 0.0228125 10.283125 -0.609375 9.65625 C-2 8 -2 8 -2 6 C-2.66 6 -3.32 6 -4 6 C-4 5.34 -4 4.68 -4 4 C-4.66 4 -5.32 4 -6 4 C-4.60804085 1.2160817 -2.84424221 1.02101003 0 0 Z " fill="#524472" transform="translate(149,355)"/>
<path d="M0 0 C2.31 0 4.62 0 7 0 C1.14129948 6.46667887 -6.58878968 8.95013635 -15.125 9.38671875 C-29.74999447 9.6787938 -29.74999447 9.6787938 -35 7 C-31.98968256 6.06576355 -31.13349732 5.95550089 -28 7 C-26.51876453 7.0806622 -25.03417796 7.10761193 -23.55078125 7.09765625 C-22.70322266 7.09443359 -21.85566406 7.09121094 -20.98242188 7.08789062 C-19.66081055 7.07532227 -19.66081055 7.07532227 -18.3125 7.0625 C-17.41982422 7.05798828 -16.52714844 7.05347656 -15.60742188 7.04882812 C-13.40488013 7.03704983 -11.20247401 7.02060164 -9 7 C-9 6.34 -9 5.68 -9 5 C-7.02 5 -5.04 5 -3 5 C-3 4.34 -3 3.68 -3 3 C-1.68 2.67 -0.36 2.34 1 2 C0.505 1.01 0.505 1.01 0 0 Z " fill="#E19B43" transform="translate(270,172)"/>
<path d="M0 0 C1.30517578 0.02030273 1.30517578 0.02030273 2.63671875 0.04101562 C4.75808627 0.07598322 6.87912974 0.1297747 9 0.1875 C9 0.5175 9 0.8475 9 1.1875 C7.84242188 1.24808594 6.68484375 1.30867188 5.4921875 1.37109375 C3.95311543 1.45555502 2.41405345 1.54020018 0.875 1.625 C0.11445313 1.66431641 -0.64609375 1.70363281 -1.4296875 1.74414062 C-5.68509203 1.98259002 -9.80370826 2.38980237 -14 3.1875 C-14 4.5075 -14 5.8275 -14 7.1875 C-14.99 7.1875 -15.98 7.1875 -17 7.1875 C-17.33 8.1775 -17.66 9.1675 -18 10.1875 C-21.10551666 10.1875 -22.35261084 9.6481285 -25 8.1875 C-16.86277126 1.91505285 -10.20325509 -0.30562746 0 0 Z " fill="#EA9B34" transform="translate(251,101.8125)"/>
<path d="M0 0 C5.03654277 4.27168098 6.61981229 11.57831063 7.32421875 17.91796875 C7.42987255 23.68016461 6.9454077 29.53604628 5 35 C4.34 35.66 3.68 36.32 3 37 C3 34.69 3 32.38 3 30 C3.66 30 4.32 30 5 30 C4.91293747 27.08190419 4.80605266 24.16684289 4.6875 21.25 C4.66494141 20.425 4.64238281 19.6 4.61914062 18.75 C4.41487465 14.14473065 4.15525323 11.54965988 1 8 C0.3591413 5.31915596 0.2301286 2.76154323 0 0 Z " fill="#D89442" transform="translate(284,120)"/>
<path d="M0 0 C0 0.66 0 1.32 0 2 C1.65 1.67 3.3 1.34 5 1 C5.33 1.99 5.66 2.98 6 4 C5.01 4.66 4.02 5.32 3 6 C3.33 6.99 3.66 7.98 4 9 C3.278125 8.690625 2.55625 8.38125 1.8125 8.0625 C-0.80307309 7.07439461 -3.25118982 6.4712246 -6 6 C-6 5.01 -6 4.02 -6 3 C-6.66 2.67 -7.32 2.34 -8 2 C-5.09399739 0.74335022 -3.20395416 0 0 0 Z " fill="#302358" transform="translate(288,380)"/>
<path d="M0 0 C0.56460938 0.70898438 1.12921875 1.41796875 1.7109375 2.1484375 C4.76500624 5.95299413 7.87262549 9.71265217 10.9765625 13.4765625 C13 16 13 16 15 19 C9.52067211 17.45454854 4.88570819 14.84456788 0 12 C0 11.67 0 11.34 0 11 C1.65 11 3.3 11 5 11 C5 10.01 5 9.02 5 8 C3.68 7.67 2.36 7.34 1 7 C1.33 6.01 1.66 5.02 2 4 C1.34 4 0.68 4 0 4 C0 2.68 0 1.36 0 0 Z " fill="#4588CE" transform="translate(171,354)"/>
<path d="M0 0 C1.32 0.66 2.64 1.32 4 2 C3.34 2.66 2.68 3.32 2 4 C2 4.66 2 5.32 2 6 C2 6.99 2 7.98 2 9 C0.35 9.66 -1.3 10.32 -3 11 C-2.79375 11.928125 -2.5875 12.85625 -2.375 13.8125 C-2 17 -2 17 -4 20 C-4.99 19.67 -5.98 19.34 -7 19 C-6.67 18.34 -6.34 17.68 -6 17 C-5.93049459 15.45976004 -5.91547643 13.91665012 -5.9375 12.375 C-5.94652344 11.55773437 -5.95554688 10.74046875 -5.96484375 9.8984375 C-5.97644531 9.27195313 -5.98804688 8.64546875 -6 8 C-5.36578125 7.73445312 -4.7315625 7.46890625 -4.078125 7.1953125 C-1.66213775 6.09129506 -1.66213775 6.09129506 -0.75 2.875 C-0.5025 1.92625 -0.255 0.9775 0 0 Z " fill="#2F2153" transform="translate(168,197)"/>
<path d="M0 0 C0.66 0 1.32 0 2 0 C2.6875 1.8125 2.6875 1.8125 3 4 C2.30390625 4.6496875 2.30390625 4.6496875 1.59375 5.3125 C-0.48345425 7.51189273 -0.68831255 9.23077434 -1.1875 12.1875 C-1.34605469 13.08855469 -1.50460938 13.98960937 -1.66796875 14.91796875 C-1.77753906 15.60503906 -1.88710937 16.29210937 -2 17 C-2.66 17 -3.32 17 -4 17 C-3.9071875 18.7015625 -3.9071875 18.7015625 -3.8125 20.4375 C-3.78619778 25.33847991 -5.23987606 29.473967 -7 34 C-7.33 34 -7.66 34 -8 34 C-7.42349118 27.54180565 -6.280286 21.5576287 -4.5625 15.3125 C-4.34529297 14.49716797 -4.12808594 13.68183594 -3.90429688 12.84179688 C-2.73802932 8.50944564 -1.47285059 4.24043961 0 0 Z " fill="#212A66" transform="translate(169,255)"/>
<path d="M0 0 C0.66 0 1.32 0 2 0 C1.95359375 0.79664062 1.9071875 1.59328125 1.859375 2.4140625 C1.63599164 8.97195959 1.56283074 13.00818458 6 18 C5.01 18 4.02 18 3 18 C2.67 18.99 2.34 19.98 2 21 C2 20.34 2 19.68 2 19 C1.01 19.33 0.02 19.66 -1 20 C-1.33 18.35 -1.66 16.7 -2 15 C-1.34 14.67 -0.68 14.34 0 14 C0 12.68 0 11.36 0 10 C-0.66 10 -1.32 10 -2 10 C-1.46274105 6.62294375 -0.88935377 3.303314 0 0 Z " fill="#EC9A2B" transform="translate(235,124)"/>
<path d="M0 0 C0 0.33 0 0.66 0 1 C-2.97 1 -5.94 1 -9 1 C-9.33 1.99 -9.66 2.98 -10 4 C-10.928125 4.061875 -11.85625 4.12375 -12.8125 4.1875 C-16.1964441 4.66192308 -16.1964441 4.66192308 -17.625 7.5625 C-18.305625 8.7690625 -18.305625 8.7690625 -19 10 C-20.32 10 -21.64 10 -23 10 C-23 10.99 -23 11.98 -23 13 C-23.99 12.67 -24.98 12.34 -26 12 C-24.85022429 10.85022429 -23.69565698 9.70501003 -22.5234375 8.578125 C-20.9451881 7.01193135 -20.9451881 7.01193135 -19.6015625 5.109375 C-14.23269049 -1.59490173 -8.06655834 -0.7048449 0 0 Z " fill="#5DA5A1" transform="translate(304,176)"/>
<path d="M0 0 C2 0 2 0 3.5 1.4375 C3.995 1.953125 4.49 2.46875 5 3 C5.66 3.33 6.32 3.66 7 4 C6.67 5.32 6.34 6.64 6 8 C5.01 8 4.02 8 3 8 C3.99 8.33 4.98 8.66 6 9 C5.67 10.32 5.34 11.64 5 13 C3.08203125 12.31640625 3.08203125 12.31640625 1 11 C0.13671875 8.65234375 0.13671875 8.65234375 -0.3125 5.9375 C-0.47363281 5.03902344 -0.63476562 4.14054687 -0.80078125 3.21484375 C-0.86652344 2.48394531 -0.93226563 1.75304687 -1 1 C-0.67 0.67 -0.34 0.34 0 0 Z " fill="#3B2F62" transform="translate(157,362)"/>
<path d="M0 0 C1.98 0.66 3.96 1.32 6 2 C5.67567593 5.06382739 5.01098513 5.98970965 2.71484375 8.140625 C1.79832031 8.83671875 0.88179688 9.5328125 -0.0625 10.25 C-0.98160156 10.95640625 -1.90070313 11.6628125 -2.84765625 12.390625 C-3.91306641 13.18726563 -3.91306641 13.18726563 -5 14 C-5.66 13.01 -6.32 12.02 -7 11 C-5.35 10.67 -3.7 10.34 -2 10 C-2.33 9.01 -2.66 8.02 -3 7 C-2.34 6.34 -1.68 5.68 -1 5 C-0.35232207 2.42938689 -0.35232207 2.42938689 0 0 Z " fill="#4798DA" transform="translate(312,353)"/>
<path d="M0 0 C0.99 0 1.98 0 3 0 C1.2938092 5.61002954 -1.08397765 10.85758488 -3.5 16.1875 C-3.90347656 17.08919922 -4.30695313 17.99089844 -4.72265625 18.91992188 C-6.32506629 22.47113753 -7.83339821 25.75009731 -10 29 C-10.40652968 23.57960425 -9.03993514 19.92984325 -7 15 C-6.34 15 -5.68 15 -5 15 C-4.34 12.36 -3.68 9.72 -3 7 C-2.34 7 -1.68 7 -1 7 C-0.67 4.69 -0.34 2.38 0 0 Z " fill="#458ACD" transform="translate(178,229)"/>
<path d="M0 0 C0.598125 0.309375 1.19625 0.61875 1.8125 0.9375 C4.08956772 2.10209704 4.08956772 2.10209704 7 3 C7.66 3.33 8.32 3.66 9 4 C9 4.66 9 5.32 9 6 C9.66 6.66 10.32 7.32 11 8 C10.67 8.66 10.34 9.32 10 10 C7.69 9.67 5.38 9.34 3 9 C3 8.34 3 7.68 3 7 C1.68 6.67 0.36 6.34 -1 6 C-0.67 4.02 -0.34 2.04 0 0 Z " fill="#372257" transform="translate(254,119)"/>
<path d="M0 0 C3 3.75 3 3.75 3 6 C8.53894641 7.15915242 8.53894641 7.15915242 13.8125 5.75 C15.6831908 4.25344736 17.39375533 2.77532306 19 1 C17.83050421 4.32856495 16.92000675 6.9142809 14 9 C9.43342066 10.24543073 5.6231554 9.83216797 1 9 C0.67 6.03 0.34 3.06 0 0 Z " fill="#4F98D6" transform="translate(216,285)"/>
<path d="M0 0 C0.86625 0.61875 1.7325 1.2375 2.625 1.875 C5.82273487 4.14672581 5.82273487 4.14672581 9.25 4.75 C12 6 12 6 12.8203125 7.8984375 C13.32107003 9.90852054 13.67014694 11.95491103 14 14 C12.35 14 10.7 14 9 14 C9.33 12.02 9.66 10.04 10 8 C7.69 8.33 5.38 8.66 3 9 C2.731875 8.21625 2.46375 7.4325 2.1875 6.625 C1.15185568 3.71885077 1.15185568 3.71885077 -2 2 C-1.34 2 -0.68 2 0 2 C0 1.34 0 0.68 0 0 Z " fill="#EF9B2B" transform="translate(235,158)"/>
<path d="M0 0 C0.66 0.33 1.32 0.66 2 1 C1.34 2.32 0.68 3.64 0 5 C-0.66 5 -1.32 5 -2 5 C-2 5.99 -2 6.98 -2 8 C-1.01 8.33 -0.02 8.66 1 9 C0.34 10.32 -0.32 11.64 -1 13 C-5 13 -5 13 -8 12 C-6.49087042 7.01987239 -3.44338151 3.75740058 0 0 Z " fill="#EC9A2E" transform="translate(224,111)"/>
<path d="M0 0 C0.66 0 1.32 0 2 0 C4.10297872 17.98797872 4.10297872 17.98797872 1 24 C0.67 24 0.34 24 0 24 C0 16.08 0 8.16 0 0 Z " fill="#23265F" transform="translate(159,296)"/>
<path d="M0 0 C0.33 0.99 0.66 1.98 1 3 C-4.625 6 -4.625 6 -8 6 C-8 6.66 -8 7.32 -8 8 C-13.28814483 9.80168263 -17.28547632 10.12517909 -22.9375 9.625 C-23.62134766 9.56828125 -24.30519531 9.5115625 -25.00976562 9.453125 C-26.67417046 9.31345466 -28.33726886 9.15835535 -30 9 C-30 8.67 -30 8.34 -30 8 C-29.06800781 7.98582031 -28.13601562 7.97164062 -27.17578125 7.95703125 C-17.92822143 7.61106592 -6.90894113 6.90894113 0 0 Z " fill="#4F2C2F" transform="translate(275,173)"/>
<path d="M0 0 C3.39512672 1.45505431 5.71110257 3.07968259 8 6 C8.90134333 9.60537331 9.40992247 11.93420158 8.0625 15.4375 C7.711875 15.953125 7.36125 16.46875 7 17 C5.64560332 14.29120665 5.93498549 11.99066732 6 9 C5.34 9 4.68 9 4 9 C4 8.34 4 7.68 4 7 C3.01 6.67 2.02 6.34 1 6 C0.67 4.02 0.34 2.04 0 0 Z " fill="#554971" transform="translate(323,166)"/>
<path d="M0 0 C0.66 0 1.32 0 2 0 C2 0.66 2 1.32 2 2 C3.65 2 5.3 2 7 2 C7 2.66 7 3.32 7 4 C7.99 4.33 8.98 4.66 10 5 C9.01 6.485 9.01 6.485 8 8 C8.78375 8.763125 9.5675 9.52625 10.375 10.3125 C13 13 13 13 15 16 C9.373444 14.63598642 6.33053324 10.44071099 3 6 C1.8157691 4.02212663 0.90398399 2.12702115 0 0 Z " fill="#F09C2F" transform="translate(215,160)"/>
<path d="M0 0 C2 3 2 3 1.828125 5.0078125 C1.63734375 5.70648438 1.4465625 6.40515625 1.25 7.125 C1.06953125 7.82882813 0.8890625 8.53265625 0.703125 9.2578125 C0 11 0 11 -2 12 C-2.33 12.99 -2.66 13.98 -3 15 C-3.66 15 -4.32 15 -5 15 C-5 15.66 -5 16.32 -5 17 C-5.66 17 -6.32 17 -7 17 C-5.1668733 11.00067626 -2.92678249 5.55079437 0 0 Z " fill="#5A5076" transform="translate(144,239)"/>
<path d="M0 0 C1 3 1 3 1 6 C0.01 6 -0.98 6 -2 6 C-1.67 6.99 -1.34 7.98 -1 9 C-1.99 9.495 -1.99 9.495 -3 10 C-3.433125 10.78375 -3.86625 11.5675 -4.3125 12.375 C-6.20600376 15.3204503 -7.92130157 16.41904675 -11 18 C-9.48103632 13.56829827 -7.07360191 9.96975924 -4.375 6.1875 C-3.95476562 5.59001953 -3.53453125 4.99253906 -3.1015625 4.37695312 C-2.07220272 2.91479435 -1.0367177 1.45695101 0 0 Z " fill="#6E6584" transform="translate(156,221)"/>
<path d="M0 0 C0.66 0 1.32 0 2 0 C2.33 2.31 2.66 4.62 3 7 C6.3 7 9.6 7 13 7 C13 6.34 13 5.68 13 5 C13.99 5.33 14.98 5.66 16 6 C14.13422232 8.68205541 12.22161385 9.39820523 9.125 10 C5.55938743 10.33489179 5.1394195 10.10382303 2.0625 7.8125 C-0.79136691 3.92086331 -0.79136691 3.92086331 -1 1 C-0.67 0.67 -0.34 0.34 0 0 Z " fill="#22316D" transform="translate(281,283)"/>
<path d="M0 0 C1.21333397 2.42666795 1 4.33499722 1 7 C-1.81769349 9.17364926 -3.2190681 10.08677021 -6.8125 9.6875 C-7.534375 9.460625 -8.25625 9.23375 -9 9 C-7.84826645 6.53199953 -6.95216435 4.95216435 -5 3 C-3.68 3 -2.36 3 -1 3 C-0.67 2.01 -0.34 1.02 0 0 Z " fill="#31225A" transform="translate(285,166)"/>
<path d="M0 0 C0 0.99 0 1.98 0 3 C-5.35233495 6.5682233 -11.63026469 7.32665309 -18 7 C-18 6.34 -18 5.68 -18 5 C-16.95199219 4.72285156 -15.90398437 4.44570313 -14.82421875 4.16015625 C-13.44529933 3.79432048 -12.0663938 3.42843233 -10.6875 3.0625 C-9.65206055 2.78889648 -9.65206055 2.78889648 -8.59570312 2.50976562 C-5.70112156 1.7406739 -2.84215271 0.94738424 0 0 Z " fill="#262C68" transform="translate(288,376)"/>
<path d="M0 0 C1.15371094 0.00322266 2.30742187 0.00644531 3.49609375 0.00976562 C4.68589844 0.01814453 5.87570313 0.02652344 7.1015625 0.03515625 C8.92107422 0.04192383 8.92107422 0.04192383 10.77734375 0.04882812 C13.76046757 0.06057271 16.74348929 0.07699785 19.7265625 0.09765625 C19.7265625 0.42765625 19.7265625 0.75765625 19.7265625 1.09765625 C10.4865625 1.42765625 1.2465625 1.75765625 -8.2734375 2.09765625 C-8.2734375 2.75765625 -8.2734375 3.41765625 -8.2734375 4.09765625 C-9.5934375 3.43765625 -10.9134375 2.77765625 -12.2734375 2.09765625 C-12.2734375 1.76765625 -12.2734375 1.43765625 -12.2734375 1.09765625 C-8.12420692 0.31185832 -4.22050319 -0.02089358 0 0 Z " fill="#669EA4" transform="translate(190.2734375,176.90234375)"/>
<path d="M0 0 C2.0625 0.4375 2.0625 0.4375 4 1 C3.04882866 2.1725131 2.08882991 3.33787015 1.125 4.5 C0.32449219 5.47453125 0.32449219 5.47453125 -0.4921875 6.46875 C-0.98976563 6.9740625 -1.48734375 7.479375 -2 8 C-2.66 8 -3.32 8 -4 8 C-4 8.66 -4 9.32 -4 10 C-4.99 10.33 -5.98 10.66 -7 11 C-7.625 9.1875 -7.625 9.1875 -8 7 C-7.34 6.01 -6.68 5.02 -6 4 C-4.68 4.66 -3.36 5.32 -2 6 C-1.855625 5.195625 -1.71125 4.39125 -1.5625 3.5625 C-1 1 -1 1 0 0 Z " fill="#6D6281" transform="translate(325,364)"/>
<path d="M0 0 C0.66 0 1.32 0 2 0 C1.67 1.98 1.34 3.96 1 6 C0.34 6 -0.32 6 -1 6 C-1.13277344 6.55171875 -1.26554688 7.1034375 -1.40234375 7.671875 C-2.05660641 10.22050602 -2.80035064 12.73159343 -3.5625 15.25 C-3.83191406 16.14203125 -4.10132813 17.0340625 -4.37890625 17.953125 C-4.58386719 18.62859375 -4.78882813 19.3040625 -5 20 C-5.99 20 -6.98 20 -8 20 C-5.83836487 13.06001352 -3.1063786 6.56882431 0 0 Z " fill="#4D96D3" transform="translate(186,246)"/>
<path d="M0 0 C1.9375 2.0625 1.9375 2.0625 3 4 C2.01 4.495 2.01 4.495 1 5 C0.67 4.484375 0.34 3.96875 0 3.4375 C-2.46229584 1.66772487 -3.25492998 1.92841118 -6.1875 2.3125 C-7.445625 2.539375 -8.70375 2.76625 -10 3 C-10.28875 3.804375 -10.5775 4.60875 -10.875 5.4375 C-12 8 -12 8 -14 9 C-12.11164466 2.46338535 -12.11164466 2.46338535 -9 0 C-5.8168485 -1.59157575 -3.38676935 -0.77242108 0 0 Z " fill="#212E6B" transform="translate(230,267)"/>
<path d="M0 0 C3.46827222 0.28902269 4.80653554 0.81671788 7.375 3.25 C9 6 9 6 8.75 8.8125 C8.5025 9.534375 8.255 10.25625 8 11 C6.68 11.33 5.36 11.66 4 12 C3.34 11.01 2.68 10.02 2 9 C3.65 9.33 5.3 9.66 7 10 C7 9.34 7 8.68 7 8 C6.34 7.34 5.68 6.68 5 6 C5.33 5.34 5.66 4.68 6 4 C4.02 4 2.04 4 0 4 C0 2.68 0 1.36 0 0 Z " fill="#422332" transform="translate(257,119)"/>
<path d="M0 0 C0.99 0 1.98 0 3 0 C3 0.66 3 1.32 3 2 C3.66 2 4.32 2 5 2 C3.60064115 5.40364888 2.12995268 6.90806188 -1 8.8125 C-1.70125 9.25207031 -2.4025 9.69164062 -3.125 10.14453125 C-3.74375 10.42683594 -4.3625 10.70914062 -5 11 C-5.66 10.67 -6.32 10.34 -7 10 C-6.67 8.68 -6.34 7.36 -6 6 C-4.68 6 -3.36 6 -2 6 C0.20067421 5.06716704 0.20067421 5.06716704 2 4 C2 3.34 2 2.68 2 2 C1.34 2 0.68 2 0 2 C0 1.34 0 0.68 0 0 Z " fill="#4D95D7" transform="translate(272,310)"/>
<path d="M0 0 C1.67542976 0.28604898 3.34385343 0.61781233 5 1 C3.68 1.33 2.36 1.66 1 2 C1.33 3.98 1.66 5.96 2 8 C3.32 7.67 4.64 7.34 6 7 C6 7.99 6 8.98 6 10 C6.66 10.66 7.32 11.32 8 12 C4.47224511 11.69762101 2.96191135 10.97019149 0.125 8.75 C-2 6 -2 6 -1.875 3.25 C-1 1 -1 1 0 0 Z " fill="#462830" transform="translate(236,151)"/>
<path d="M0 0 C4.75 0.75 4.75 0.75 7 3 C7.375 6.375 7.375 6.375 7 10 C5 12.4375 5 12.4375 3 14 C3 12.35 3 10.7 3 9 C3.99 9 4.98 9 6 9 C6 7.68 6 6.36 6 5 C4.35 4.67 2.7 4.34 1 4 C0.67 2.68 0.34 1.36 0 0 Z " fill="#252A66" transform="translate(281,310)"/>
<path d="M0 0 C1.10844919 3.32534757 0.84454356 5.62182575 0 9 C-0.66 9 -1.32 9 -2 9 C-2.33 14.61 -2.66 20.22 -3 26 C-3.33 26 -3.66 26 -4 26 C-4.3608554 16.72467979 -4.21659252 8.43318504 0 0 Z " fill="#E49F48" transform="translate(215,123)"/>
<path d="M0 0 C0.99 0 1.98 0 3 0 C3 5.94 3 11.88 3 18 C2.01 17.67 1.02 17.34 0 17 C0 11.39 0 5.78 0 0 Z " fill="#45292E" transform="translate(209,133)"/>
<path d="M0 0 C0.99 0 1.98 0 3 0 C1.59023295 3.03852705 -0.08870228 5.5939595 -2.125 8.25 C-2.66382813 8.95640625 -3.20265625 9.6628125 -3.7578125 10.390625 C-4.16773438 10.92171875 -4.57765625 11.4528125 -5 12 C-6.0546875 10.140625 -6.0546875 10.140625 -7 8 C-6.125 5.75 -6.125 5.75 -5 4 C-4.01 4.33 -3.02 4.66 -2 5 C-2 4.34 -2 3.68 -2 3 C-1.34 3 -0.68 3 0 3 C0 2.01 0 1.02 0 0 Z " fill="#584E71" transform="translate(335,353)"/>
<path d="M0 0 C3 1 3 1 3.875 2.625 C4.431875 3.800625 4.431875 3.800625 5 5 C6.6102976 7.37467937 8.29944634 9.68932404 10 12 C9.67 12.66 9.34 13.32 9 14 C6.21611025 12.29374499 5.14615794 11.52373261 4.25 8.3125 C4.1675 7.549375 4.085 6.78625 4 6 C3.01 6 2.02 6 1 6 C1 6.66 1 7.32 1 8 C0.34 8 -0.32 8 -1 8 C-1 7.01 -1 6.02 -1 5 C-0.34 5 0.32 5 1 5 C0.67 3.35 0.34 1.7 0 0 Z " fill="#242960" transform="translate(163,186)"/>
<path d="M0 0 C0.66 0 1.32 0 2 0 C0.7874262 3.72433382 -0.50859979 7.37802806 -2 11 C-2.33 9.68 -2.66 8.36 -3 7 C-4.65 7.33 -6.3 7.66 -8 8 C-7.34 6.35 -6.68 4.7 -6 3 C-4.68 3.33 -3.36 3.66 -2 4 C-2 3.34 -2 2.68 -2 2 C-1.34 2 -0.68 2 0 2 C0 1.34 0 0.68 0 0 Z " fill="#3F2344" transform="translate(215,119)"/>
<path d="M0 0 C0.99 0.66 1.98 1.32 3 2 C2.6875 4.375 2.6875 4.375 2 7 C-1.48868651 9.32579101 -2.89718519 9.41865457 -7 9 C-8.32 8.01 -9.64 7.02 -11 6 C-7.04 6 -3.08 6 1 6 C0.67 4.02 0.34 2.04 0 0 Z " fill="#D29044" transform="translate(254,147)"/>
<path d="M0 0 C0.66 0 1.32 0 2 0 C2.33 0.66 2.66 1.32 3 2 C5.52733235 2.65555119 5.52733235 2.65555119 8 3 C8.33 2.01 8.66 1.02 9 0 C9 1.32 9 2.64 9 4 C8.0925 4.433125 7.185 4.86625 6.25 5.3125 C3.56781551 6.70517271 1.33860395 8.11112757 -1 10 C-1.33 8.68 -1.66 7.36 -2 6 C-0.68 6 0.64 6 2 6 C1.34 5.01 0.68 4.02 0 3 C0 2.01 0 1.02 0 0 Z " fill="#E89A35" transform="translate(238,114)"/>
<path d="M0 0 C4.25209792 4.12324647 8.13635705 8.51282966 12 13 C11.34 13.66 10.68 14.32 10 15 C9.773125 14.38125 9.54625 13.7625 9.3125 13.125 C8.17883402 10.75388049 8.17883402 10.75388049 5.5625 10.3125 C2.36843148 8.67651369 2.27664959 7.69949947 1.1875 4.375 C0.77267189 2.92195569 0.37074916 1.46491133 0 0 Z " fill="#23326D" transform="translate(151,346)"/>
<path d="M0 0 C0.33 0 0.66 0 1 0 C1.09796875 0.74765625 1.1959375 1.4953125 1.296875 2.265625 C2.13812192 8.28386591 2.13812192 8.28386591 4.8125 13.625 C7.23803235 15.14962034 9.16493476 15.68499275 12 16 C12 16.33 12 16.66 12 17 C8.16774573 17.08912219 4.73437848 16.87867729 1 16 C0.14701624 12.32612505 -0.10789471 8.9552607 -0.0625 5.1875 C-0.05347656 4.21167969 -0.04445313 3.23585938 -0.03515625 2.23046875 C-0.02355469 1.49441406 -0.01195312 0.75835937 0 0 Z " fill="#5598D9" transform="translate(279,277)"/>
<path d="M0 0 C-0.969375 0.2475 -1.93875 0.495 -2.9375 0.75 C-3.948125 1.1625 -4.95875 1.575 -6 2 C-6.96877057 4.03243548 -6.96877057 4.03243548 -7 6 C-9.3125 6.1875 -9.3125 6.1875 -12 6 C-13.66796875 4.48828125 -13.66796875 4.48828125 -15 3 C-13.25531628 2.29911844 -11.50398839 1.61475991 -9.75 0.9375 C-8.77546875 0.55464844 -7.8009375 0.17179687 -6.796875 -0.22265625 C-3.95992605 -1.01113787 -2.70590448 -1.02437812 0 0 Z " fill="#7A7090" transform="translate(242,90)"/>
<path d="M0 0 C1.10408203 0.50660156 1.10408203 0.50660156 2.23046875 1.0234375 C3.69419922 1.69246094 3.69419922 1.69246094 5.1875 2.375 C6.63189453 3.03628906 6.63189453 3.03628906 8.10546875 3.7109375 C10.71531792 4.87321851 13.33975959 5.95924781 16 7 C12.25 10 12.25 10 10 10 C10 8.68 10 7.36 10 6 C8.35 6 6.7 6 5 6 C5 5.34 5 4.68 5 4 C4.01 4 3.02 4 2 4 C2 3.34 2 2.68 2 2 C1.34 2 0.68 2 0 2 C0 1.34 0 0.68 0 0 Z " fill="#432537" transform="translate(224,173)"/>
<path d="M0 0 C0.33 0.66 0.66 1.32 1 2 C0.0390625 3.9453125 0.0390625 3.9453125 -1.375 6.125 C-2.06722656 7.21167969 -2.06722656 7.21167969 -2.7734375 8.3203125 C-3.17820312 8.87460938 -3.58296875 9.42890625 -4 10 C-4.33 10 -4.66 10 -5 10 C-5 8.35 -5 6.7 -5 5 C-5.99 4.67 -6.98 4.34 -8 4 C-6.125 2.9375 -6.125 2.9375 -4 2 C-3.34 2.33 -2.68 2.66 -2 3 C-2 2.34 -2 1.68 -2 1 C-1.34 0.67 -0.68 0.34 0 0 Z " fill="#ED9C2D" transform="translate(286,157)"/>
<path d="M0 0 C3.63 0 7.26 0 11 0 C11 0.99 11 1.98 11 3 C9.39125 2.6596875 9.39125 2.6596875 7.75 2.3125 C4.11992824 1.68277046 4.11992824 1.68277046 1.625 3.1875 C-0.1383604 5.15432506 -0.64267506 6.40939422 -1 9 C-1.66 9 -2.32 9 -3 9 C-2.41321669 5.47930015 -1.64350079 3.28700157 0 0 Z " fill="#5398D6" transform="translate(282,265)"/>
<path d="M0 0 C2.29669929 0.9264753 4.58680817 1.86543039 6.875 2.8125 C7.85146484 3.20405273 7.85146484 3.20405273 8.84765625 3.60351562 C12.33137067 5.05805618 13.85433059 5.78149589 16 9 C10.125 7.125 10.125 7.125 9 6 C6.32941149 5.85884839 3.67567762 5.95752893 1 6 C0.67 4.02 0.34 2.04 0 0 Z " fill="#492736" transform="translate(245,132)"/>
<path d="M0 0 C0.33 0 0.66 0 1 0 C2.31626692 3.61973402 3 6.09567131 3 10 C3.66 10 4.32 10 5 10 C5 11.98 5 13.96 5 16 C3.05942221 14.05942221 2.10736248 12.54408191 0.875 10.125 C0.52179688 9.44695312 0.16859375 8.76890625 -0.1953125 8.0703125 C-1 6 -1 6 -1 2 C-0.67 1.34 -0.34 0.68 0 0 Z " fill="#3E243A" transform="translate(284,112)"/>
<path d="M0 0 C-2.5966562 2.5966562 -4.93815375 3.10687691 -8.4375 4.1875 C-9.59121094 4.55230469 -10.74492187 4.91710937 -11.93359375 5.29296875 C-15 6 -15 6 -18 5 C-18 4.67 -18 4.34 -18 4 C-16.35 3.67 -14.7 3.34 -13 3 C-13 2.67 -13 2.34 -13 2 C-8.46298506 0.54815522 -4.81938524 -0.23509196 0 0 Z " fill="#519BD5" transform="translate(290,375)"/>
<path d="M0 0 C0.33 0 0.66 0 1 0 C1.33 1.65 1.66 3.3 2 5 C2.66 5 3.32 5 4 5 C4 5.99 4 6.98 4 8 C3.01 8.66 2.02 9.32 1 10 C-0.20450304 12.55183404 -0.20450304 12.55183404 -1 15 C-1.66 14.67 -2.32 14.34 -3 14 C-2.01 9.38 -1.02 4.76 0 0 Z " fill="#26306A" transform="translate(337,315)"/>
<path d="M0 0 C0.66 0 1.32 0 2 0 C3.03590199 5.05002222 3.10251672 9.87416389 3 15 C2.34 15 1.68 15 1 15 C0.15318867 9.91913204 -0.09038099 5.15171623 0 0 Z " fill="#4B416D" transform="translate(348,306)"/>
<path d="M0 0 C2.5625 2.0625 2.5625 2.0625 4 4 C3.01 3.67 2.02 3.34 1 3 C-3.08594833 1.8134874 -6.76342394 1.85134821 -11 2 C-11.33 2.99 -11.66 3.98 -12 5 C-11.625 2.5625 -11.625 2.5625 -11 0 C-7.52261714 -1.73869143 -3.69450995 -0.87933274 0 0 Z " fill="#DD9944" transform="translate(257,127)"/>
<path d="M0 0 C0.33 0.66 0.66 1.32 1 2 C2.98 1.67 4.96 1.34 7 1 C4.22719294 4.08089673 1.93673644 5.68775452 -2 7 C-2.125 4.625 -2.125 4.625 -2 2 C-1.34 1.34 -0.68 0.68 0 0 Z " fill="#554A72" transform="translate(311,374)"/>
<path d="M0 0 C1.64826111 2.96687001 2.44271087 5.65626525 3 9 C2.29875 8.34 1.5975 7.68 0.875 7 C-2.43460229 4.69766797 -4.06225823 4.63369844 -8 5 C-8 4.34 -8 3.68 -8 3 C-6.68 3 -5.36 3 -4 3 C-3.67 2.34 -3.34 1.68 -3 1 C-2.01 0.67 -1.02 0.34 0 0 Z " fill="#4B9BD8" transform="translate(286,306)"/>
<path d="M0 0 C5.53657294 -0.42589023 9.89665983 1.094753 15 3 C15 3.33 15 3.66 15 4 C10.05 3.67 5.1 3.34 0 3 C0 2.01 0 1.02 0 0 Z " fill="#3A2542" transform="translate(237,153)"/>
<path d="M0 0 C1.46067199 0.45082469 2.91848032 0.91093537 4.375 1.375 C5.18710938 1.63023437 5.99921875 1.88546875 6.8359375 2.1484375 C9 3 9 3 11 5 C7.65747276 5.07427838 5.1964086 5.06546953 2 4 C0.68 4 -0.64 4 -2 4 C-1.34 2.68 -0.68 1.36 0 0 Z " fill="#EB9D30" transform="translate(241,142)"/>
<path d="M0 0 C3.82669043 3.42388092 5.72278474 6.00724943 7 11 C2.94089532 9.64696511 2.0786931 7.65563269 0 4 C0 2.68 0 1.36 0 0 Z " fill="#635B7A" transform="translate(291,106)"/>
<path d="M0 0 C5 2 5 2 6.109375 3.8046875 C6.32078125 4.48789063 6.5321875 5.17109375 6.75 5.875 C6.97171875 6.55304688 7.1934375 7.23109375 7.421875 7.9296875 C7.98474493 9.94537034 8.5074732 11.96604673 9 14 C8.34 14 7.68 14 7 14 C4.69 9.38 2.38 4.76 0 0 Z " fill="#232E69" transform="translate(319,241)"/>
<path d="M0 0 C0.96136276 2.59567945 1.0768013 3.7695961 0.1875 6.4375 C-0.204375 7.283125 -0.59625 8.12875 -1 9 C-1.309375 9.9075 -1.61875 10.815 -1.9375 11.75 C-2.288125 12.4925 -2.63875 13.235 -3 14 C-3.99 14.33 -4.98 14.66 -6 15 C-4.36041242 9.76727367 -2.61047965 4.84803364 0 0 Z " fill="#242967" transform="translate(180,231)"/>
<path d="M0 0 C1.32 0 2.64 0 4 0 C2.6062718 4.43458973 0.39417765 6.87378374 -3 10 C-3 8.68 -3 7.36 -3 6 C-2.34 6 -1.68 6 -1 6 C-1.0309375 4.7934375 -1.0309375 4.7934375 -1.0625 3.5625 C-1 1 -1 1 0 0 Z " fill="#282863" transform="translate(166,225)"/>
<path d="M0 0 C2.5654594 2.5654594 2.54046087 4.47686668 3 8 C2.01 8.66 1.02 9.32 0 10 C-1.125 8.375 -1.125 8.375 -2 6 C-1.125 2.75 -1.125 2.75 0 0 Z " fill="#514470" transform="translate(299,118)"/>
<path d="M0 0 C1.08667969 0.29197266 1.08667969 0.29197266 2.1953125 0.58984375 C2.74960937 0.74582031 3.30390625 0.90179688 3.875 1.0625 C1.61314546 3.32435454 -0.09483561 4.10171617 -3.125 5.0625 C-4.115 4.7325 -5.105 4.4025 -6.125 4.0625 C-5.465 4.0625 -4.805 4.0625 -4.125 4.0625 C-4.785 2.7425 -5.445 1.4225 -6.125 0.0625 C-3.57797384 -1.21101308 -2.6967055 -0.73941925 0 0 Z " fill="#6B6186" transform="translate(296.125,384.9375)"/>
<path d="M0 0 C1.8272911 2.74093665 2.93698178 5.13825324 4.125 8.1875 C4.47820312 9.08855469 4.83140625 9.98960937 5.1953125 10.91796875 C5.46085938 11.60503906 5.72640625 12.29210937 6 13 C5.34 13.66 4.68 14.32 4 15 C4 14.34 4 13.68 4 13 C3.34 13 2.68 13 2 13 C2 11.02 2 9.04 2 7 C1.34 7 0.68 7 0 7 C0 4.69 0 2.38 0 0 Z " fill="#242963" transform="translate(175,333)"/>
<path d="M0 0 C0.66 0.99 1.32 1.98 2 3 C-0.31 2.67 -2.62 2.34 -5 2 C-5.12375 2.804375 -5.2475 3.60875 -5.375 4.4375 C-5.58125 5.283125 -5.7875 6.12875 -6 7 C-6.99 7.495 -6.99 7.495 -8 8 C-8.33 5.36 -8.66 2.72 -9 0 C-5.68518735 -1.10493755 -3.33868884 -1.05432279 0 0 Z " fill="#E8993F" transform="translate(241,150)"/>
<path d="M0 0 C3.98175544 2.10148204 6.35039045 4.36905358 9 8 C8.67 8.66 8.34 9.32 8 10 C7.34 9.34 6.68 8.68 6 8 C4.35008418 7.29289322 2.68437744 6.62056011 1 6 C1.33 5.01 1.66 4.02 2 3 C1.34 2.67 0.68 2.34 0 2 C0 1.34 0 0.68 0 0 Z " fill="#E39B3A" transform="translate(275,110)"/>
<path d="M0 0 C0.99 0 1.98 0 3 0 C3 4.29 3 8.58 3 13 C2.67 13 2.34 13 2 13 C2 11.02 2 9.04 2 7 C1.34 7 0.68 7 0 7 C0 4.69 0 2.38 0 0 Z " fill="#281E4A" transform="translate(348,299)"/>
<path d="M0 0 C1.5 1.0625 1.5 1.0625 3 3 C3.1875 6.6875 3.1875 6.6875 3 10 C2.01 10 1.02 10 0 10 C-1.231394 6.30581799 -0.64432764 3.7943739 0 0 Z " fill="#322158" transform="translate(329,235)"/>
<path d="M0 0 C2.43868168 -0.1079859 4.87259133 -0.18726589 7.3125 -0.25 C8.00279297 -0.28351563 8.69308594 -0.31703125 9.40429688 -0.3515625 C11.42578125 -0.390625 11.42578125 -0.390625 15 0 C16.98046875 2.015625 16.98046875 2.015625 18 4 C17.071875 3.690625 16.14375 3.38125 15.1875 3.0625 C10.22128454 1.6216844 5.13794694 1.35305964 0 1 C0 0.67 0 0.34 0 0 Z " fill="#4B9BD7" transform="translate(287,220)"/>
<path d="M0 0 C3.96 0 7.92 0 12 0 C11.34 1.98 10.68 3.96 10 6 C9.67 6 9.34 6 9 6 C9 4.35 9 2.7 9 1 C3.6092003 1.23004734 3.6092003 1.23004734 -1 3.5625 C-1.33 4.036875 -1.66 4.51125 -2 5 C-1.34 3.35 -0.68 1.7 0 0 Z " fill="#508CCF" transform="translate(174,219)"/>
<path d="M0 0 C1 3 1 3 -0.125 6.625 C-1.053125 8.295625 -1.053125 8.295625 -2 10 C-3.65 10.33 -5.3 10.66 -7 11 C-4.69 7.37 -2.38 3.74 0 0 Z " fill="#1F2D66" transform="translate(325,347)"/>
<path d="M0 0 C1.98 0.99 1.98 0.99 4 2 C3.34 4.64 2.68 7.28 2 10 C1.34 10 0.68 10 0 10 C0 6.7 0 3.4 0 0 Z " fill="#4B9ADA" transform="translate(332,322)"/>
<path d="M0 0 C2.97 0.495 2.97 0.495 6 1 C6.66 3.64 7.32 6.28 8 9 C6.35 9 4.7 9 3 9 C3.33 7.02 3.66 5.04 4 3 C2.68 2.67 1.36 2.34 0 2 C0 1.34 0 0.68 0 0 Z " fill="#EDA03C" transform="translate(241,163)"/>
<path d="M0 0 C2.3431213 0.25561323 4.67843403 0.59270772 7 1 C7.33 1.66 7.66 2.32 8 3 C7.34 3 6.68 3 6 3 C6 3.66 6 4.32 6 5 C4.35 5 2.7 5 1 5 C0.67 3.35 0.34 1.7 0 0 Z " fill="#F49E26" transform="translate(246,129)"/>
<path d="M0 0 C4 0 4 0 6 1 C6.66719444 4.06909445 7 6.85786017 7 10 C5.83043409 8.52312468 4.66441854 7.04343707 3.5 5.5625 C2.8503125 4.73878906 2.200625 3.91507812 1.53125 3.06640625 C0 1 0 1 0 0 Z " fill="#4A8CD4" transform="translate(152,346)"/>
<path d="M0 0 C4.01778372 1.33926124 4.78023848 3.49134469 7 7 C7.66 7.66 8.32 8.32 9 9 C8.625 11.125 8.625 11.125 8 13 C6.66388095 11.0226631 5.33100742 9.04327287 4 7.0625 C3.6184375 6.49853516 3.236875 5.93457031 2.84375 5.35351562 C0 1.11328125 0 1.11328125 0 0 Z " fill="#63A4A6" transform="translate(188,188)"/>
<path d="M0 0 C2.16874252 0.50603992 3.99967627 0.99983813 6 2 C5.67 2.99 5.34 3.98 5 5 C3.35 5.33 1.7 5.66 0 6 C0.66 5.67 1.32 5.34 2 5 C2 4.34 2 3.68 2 3 C1.01 2.67 0.02 2.34 -1 2 C-0.67 1.34 -0.34 0.68 0 0 Z " fill="#504371" transform="translate(284,386)"/>
<path d="M0 0 C0.33 0.99 0.66 1.98 1 3 C0.67 3.66 0.34 4.32 0 5 C1.32 5.33 2.64 5.66 4 6 C3.01 6.495 3.01 6.495 2 7 C-0.1640625 6.22265625 -0.1640625 6.22265625 -2.625 5.0625 C-3.44226563 4.68222656 -4.25953125 4.30195313 -5.1015625 3.91015625 C-5.72804687 3.60980469 -6.35453125 3.30945313 -7 3 C-4 2 -4 2 0 2 C0 1.34 0 0.68 0 0 Z " fill="#796F8D" transform="translate(183,381)"/>
<path d="M0 0 C4.8665386 0.41713188 6.79230533 2.45465326 10 6 C10.598125 6.598125 11.19625 7.19625 11.8125 7.8125 C12.204375 8.204375 12.59625 8.59625 13 9 C7.97290493 7.42903279 3.97133531 4.38006951 0 1 C0 0.67 0 0.34 0 0 Z " fill="#5197D3" transform="translate(196,364)"/>
<path d="M0 0 C1.98 0 3.96 0 6 0 C4.35 2.64 2.7 5.28 1 8 C-0.35439668 5.29120665 -0.06501451 2.99066732 0 0 Z " fill="#4F99DB" transform="translate(320,346)"/>
<path d="M0 0 C0 0.33 0 0.66 0 1 C-4.455 1.495 -4.455 1.495 -9 2 C-9.33 2.99 -9.66 3.98 -10 5 C-10.66 5 -11.32 5 -12 5 C-9.30839269 -1.21140148 -6.29369588 -1.18748979 0 0 Z " fill="#1F3576" transform="translate(293,267)"/>
<path d="M0 0 C0.33 0.99 0.66 1.98 1 3 C3.00016466 4.20882096 3.00016466 4.20882096 5 5 C1.625 5.625 1.625 5.625 -2 6 C-2.66 5.34 -3.32 4.68 -4 4 C-2.68 2.68 -1.36 1.36 0 0 Z " fill="#302453" transform="translate(202,386)"/>
<path d="M0 0 C1.98 0.99 3.96 1.98 6 3 C5.01 4.485 5.01 4.485 4 6 C3.67 5.34 3.34 4.68 3 4 C2.01 4.495 2.01 4.495 1 5 C0.01 5.495 0.01 5.495 -1 6 C-1.66 5.67 -2.32 5.34 -3 5 C-3 4.01 -3 3.02 -3 2 C-2.01 2 -1.02 2 0 2 C0 1.34 0 0.68 0 0 Z " fill="#4899DB" transform="translate(237,329)"/>
<path d="M0 0 C0.33 1.32 0.66 2.64 1 4 C0.401875 4.391875 -0.19625 4.78375 -0.8125 5.1875 C-3.25511232 7.21137878 -4.50112814 9.22708706 -6 12 C-6.33 11.34 -6.66 10.68 -7 10 C-6.02223933 8.51990357 -5.0427506 7.04094856 -4.0625 5.5625 C-3.51722656 4.73878906 -2.97195312 3.91507813 -2.41015625 3.06640625 C-1 1 -1 1 0 0 Z " fill="#4B85CC" transform="translate(164,234)"/>
<path d="M0 0 C0.66 0 1.32 0 2 0 C2.99 1.98 3.98 3.96 5 6 C2.03 5.505 2.03 5.505 -1 5 C-1.33 4.01 -1.66 3.02 -2 2 C-1.34 1.34 -0.68 0.68 0 0 Z " fill="#4C4165" transform="translate(315,214)"/>
<path d="M0 0 C0.66 0.33 1.32 0.66 2 1 C1.34 3.31 0.68 5.62 0 8 C-0.66 7.34 -1.32 6.68 -2 6 C-3.98 6.99 -3.98 6.99 -6 8 C-4.55746343 4.63408134 -2.66735273 2.48952921 0 0 Z " fill="#847C99" transform="translate(214,102)"/>
<path d="M0 0 C0.66 0 1.32 0 2 0 C2.66 1.65 3.32 3.3 4 5 C3.01 5.33 2.02 5.66 1 6 C-0.65 4.35 -2.3 2.7 -4 1 C-2.68 1.33 -1.36 1.66 0 2 C0 1.34 0 0.68 0 0 Z " fill="#4187D2" transform="translate(168,359)"/>
<path d="M0 0 C1.65 0 3.3 0 5 0 C5 3.90838866 3.49432124 5.11594107 1 8 C0.2341972 5.22396483 0 2.89326812 0 0 Z " fill="#5A5076" transform="translate(315,196)"/>
<path d="M0 0 C0.99 0.495 0.99 0.495 2 1 C3.36817102 7.04275534 3.36817102 7.04275534 2.0625 10.4375 C1.711875 10.953125 1.36125 11.46875 1 12 C-0.26237731 9.47524538 -0.09856404 7.68799534 -0.0625 4.875 C-0.05347656 3.96492187 -0.04445313 3.05484375 -0.03515625 2.1171875 C-0.02355469 1.41851562 -0.01195312 0.71984375 0 0 Z " fill="#878196" transform="translate(329,171)"/>
<path d="M0 0 C0.68707555 2.49064888 1 4.37886292 1 7 C-0.65 6.67 -2.3 6.34 -4 6 C-2.84826645 3.53199953 -1.95216435 1.95216435 0 0 Z " fill="#361F4A" transform="translate(280,169)"/>
<path d="M0 0 C1.32 0.33 2.64 0.66 4 1 C3.67 2.98 3.34 4.96 3 7 C2.34 7 1.68 7 1 7 C0.67 4.69 0.34 2.38 0 0 Z " fill="#332260" transform="translate(249,162)"/>
<path d="M0 0 C0.33 0 0.66 0 1 0 C1 1.65 1 3.3 1 5 C0.01 5.33 -0.98 5.66 -2 6 C-1.67 7.65 -1.34 9.3 -1 11 C-1.99 11.495 -1.99 11.495 -3 12 C-3.29344873 7.01137151 -3.05887078 4.03770942 0 0 Z " fill="#332254" transform="translate(295,147)"/>
<path d="M0 0 C1.32 0.66 2.64 1.32 4 2 C4 2.66 4 3.32 4 4 C3.34 4 2.68 4 2 4 C2 4.66 2 5.32 2 6 C1.01 6.33 0.02 6.66 -1 7 C-1.625 5.1875 -1.625 5.1875 -2 3 C-1.34 2.01 -0.68 1.02 0 0 Z " fill="#4F456D" transform="translate(319,368)"/>
<path d="M0 0 C2.475 0.495 2.475 0.495 5 1 C6.125 4.75 6.125 4.75 5 7 C3.29115995 5.37660195 1.62553283 3.70680947 0 2 C0 1.34 0 0.68 0 0 Z " fill="#6A5B7F" transform="translate(147,361)"/>
<path d="M0 0 C0.99 0 1.98 0 3 0 C6.22265625 5.17578125 6.22265625 5.17578125 7 7 C6.67 7.99 6.34 8.98 6 10 C4.99723227 8.52270825 3.99785546 7.04311423 3 5.5625 C2.443125 4.73878906 1.88625 3.91507812 1.3125 3.06640625 C0 1 0 1 0 0 Z " fill="#5194D2" transform="translate(178,341)"/>
<path d="M0 0 C2.92965912 2.92965912 3.94133569 5.680053 4.125 9.8125 C4.08375 10.534375 4.0425 11.25625 4 12 C1.03947516 8.63576723 0.07710178 5.30840713 -1 1 C-0.67 0.67 -0.34 0.34 0 0 Z " fill="#4A85CD" transform="translate(143,325)"/>
<path d="M0 0 C0.33 0.66 0.66 1.32 1 2 C1.66 2.33 2.32 2.66 3 3 C2.38125 3.2475 1.7625 3.495 1.125 3.75 C-1.35068687 5.20628639 -1.95125002 6.37812506 -3 9 C-3.99 8.67 -4.98 8.34 -6 8 C-4.02 5.36 -2.04 2.72 0 0 Z " fill="#4689D3" transform="translate(171,224)"/>
<path d="M0 0 C2.475 0.99 2.475 0.99 5 2 C5 2.66 5 3.32 5 4 C5.99 4 6.98 4 8 4 C7.67 5.32 7.34 6.64 7 8 C1.125 3.375 1.125 3.375 0 0 Z " fill="#272B68" transform="translate(168,186)"/>
<path d="M0 0 C4.97963801 4.81900452 4.97963801 4.81900452 5.0625 9.625 C5.041875 10.73875 5.02125 11.8525 5 13 C4.67 13 4.34 13 4 13 C3.51891725 11.58398286 3.04021859 10.16715563 2.5625 8.75 C2.29566406 7.96109375 2.02882813 7.1721875 1.75390625 6.359375 C1.08045292 4.25178012 0.50849405 2.15246027 0 0 Z " fill="#4D2930" transform="translate(261,141)"/>
<path d="M0 0 C0.66 0.99 1.32 1.98 2 3 C1.1875 4.9375 1.1875 4.9375 0 7 C-0.99 7.33 -1.98 7.66 -3 8 C-2.45276317 4.62537285 -1.9451 2.91765 0 0 Z " fill="#665D7E" transform="translate(204,114)"/>
<path d="M0 0 C0.33 1.65 0.66 3.3 1 5 C-1.88437779 3.70700306 -3.87219421 2.34058637 -6 0 C-3.50907189 -1.24546405 -2.58919267 -0.7767578 0 0 Z " fill="#47233C" transform="translate(277,106)"/>
<path d="M0 0 C1.32 0.66 2.64 1.32 4 2 C3.34 3.32 2.68 4.64 2 6 C1.34 5.67 0.68 5.34 0 5 C0 4.34 0 3.68 0 3 C-0.99 2.67 -1.98 2.34 -3 2 C-2.01 1.34 -1.02 0.68 0 0 Z " fill="#4E426D" transform="translate(321,189)"/>
<path d="M0 0 C0.99 0 1.98 0 3 0 C1.125 5.75 1.125 5.75 0 8 C-0.66 7.67 -1.32 7.34 -2 7 C-1.34 4.69 -0.68 2.38 0 0 Z " fill="#6D6580" transform="translate(327,183)"/>
<path d="M0 0 C2.18975773 3.28463659 2.99806563 6.20696275 4 10 C2 10 2 10 0.3125 8.9375 C-1 7 -1 7 -0.6875 3.3125 C-0.460625 2.219375 -0.23375 1.12625 0 0 Z " fill="#3D2137" transform="translate(211,151)"/>
<path d="M0 0 C2.31 1.98 4.62 3.96 7 6 C6.01 6.495 6.01 6.495 5 7 C2.96855359 6.06553465 0.96466413 5.06775224 -1 4 C-0.67 2.68 -0.34 1.36 0 0 Z " fill="#5392CF" transform="translate(179,366)"/>
<path d="M0 0 C1.98 0.495 1.98 0.495 4 1 C2.515 4.465 2.515 4.465 1 8 C0.34 8 -0.32 8 -1 8 C-0.67 5.36 -0.34 2.72 0 0 Z " fill="#242866" transform="translate(149,252)"/>
<path d="M0 0 C0.66 0.33 1.32 0.66 2 1 C0.70700306 3.88437779 -0.65941363 5.87219421 -3 8 C-3.1875 5.125 -3.1875 5.125 -3 2 C-2.01 1.34 -1.02 0.68 0 0 Z " fill="#5DA9A6" transform="translate(310,184)"/>
<path d="M0 0 C0.33 0 0.66 0 1 0 C1 2.31 1 4.62 1 7 C-0.65 6.67 -2.3 6.34 -4 6 C-3.67 5.01 -3.34 4.02 -3 3 C-3 3.66 -3 4.32 -3 5 C-2.34 5 -1.68 5 -1 5 C-0.67 3.35 -0.34 1.7 0 0 Z " fill="#392247" transform="translate(253,164)"/>
<path d="M0 0 C0.66 0 1.32 0 2 0 C2 0.66 2 1.32 2 2 C3.32 2.66 4.64 3.32 6 4 C6 5.65 6 7.3 6 9 C3.03134491 6.45543849 1.6380249 3.51005335 0 0 Z " fill="#E49C40" transform="translate(215,160)"/>
<path d="M0 0 C-0.33 1.32 -0.66 2.64 -1 4 C-2.98 4.33 -4.96 4.66 -7 5 C-7 4.34 -7 3.68 -7 3 C-2.61538462 0 -2.61538462 0 0 0 Z " fill="#5B5177" transform="translate(223,97)"/>
<path d="M0 0 C0.66 0.66 1.32 1.32 2 2 C0.35 3.32 -1.3 4.64 -3 6 C-3.33 5.34 -3.66 4.68 -4 4 C-4.66 4 -5.32 4 -6 4 C-4.60804085 1.2160817 -2.84424221 1.02101003 0 0 Z " fill="#5B4F78" transform="translate(149,355)"/>
<path d="M0 0 C0.66 1.32 1.32 2.64 2 4 C1.34 4.66 0.68 5.32 0 6 C-1.32 6 -2.64 6 -4 6 C-3.67 5.01 -3.34 4.02 -3 3 C-2.34 3 -1.68 3 -1 3 C-0.67 2.01 -0.34 1.02 0 0 Z " fill="#322158" transform="translate(136,330)"/>
<path d="M0 0 C1.32 0.33 2.64 0.66 4 1 C2.92598892 3.91517292 2.22189824 5.77810176 0 8 C0 5.36 0 2.72 0 0 Z " fill="#58A3A3" transform="translate(299,197)"/>
<path d="M0 0 C0.66 0.66 1.32 1.32 2 2 C1.34 2 0.68 2 0 2 C-0.268125 2.969375 -0.53625 3.93875 -0.8125 4.9375 C-1.204375 5.948125 -1.59625 6.95875 -2 8 C-2.99 8.33 -3.98 8.66 -5 9 C-3.7508258 5.54074837 -2.32472205 2.85306797 0 0 Z " fill="#212A4F" transform="translate(308,191)"/>
<path d="M0 0 C1.65 0 3.3 0 5 0 C4.43628586 3.26954202 3.50037734 4.82575883 1 7 C1.020625 6.21625 1.04125 5.4325 1.0625 4.625 C1.18684063 2.01885039 1.18684063 2.01885039 0 0 Z " fill="#65A2A9" transform="translate(312,177)"/>
<path d="M0 0 C2.5 2.25 2.5 2.25 5 5 C5 6.32 5 7.64 5 9 C4.34 9 3.68 9 3 9 C2.01 6.03 1.02 3.06 0 0 Z " fill="#242965" transform="translate(151,346)"/>
<path d="M0 0 C1 4 1 4 1 6 C-0.65 6.66 -2.3 7.32 -4 8 C-2.68 5.36 -1.36 2.72 0 0 Z " fill="#4487CF" transform="translate(156,246)"/>
<path d="M0 0 C2.50037734 2.17424117 3.43628586 3.73045798 4 7 C2.02 7 0.04 7 -2 7 C-1.01 6.67 -0.02 6.34 1 6 C0.67 4.02 0.34 2.04 0 0 Z " fill="#4B84C4" transform="translate(178,199)"/>
<path d="M0 0 C2.64 1.65 5.28 3.3 8 5 C7.01 5.495 7.01 5.495 6 6 C3.64018187 5.06421005 1.30368736 4.06652192 -1 3 C-0.67 2.01 -0.34 1.02 0 0 Z " fill="#61A8A6" transform="translate(217,183)"/>
<path d="M0 0 C1.79093191 -0.08086147 3.58289628 -0.13912702 5.375 -0.1875 C6.87160156 -0.23970703 6.87160156 -0.23970703 8.3984375 -0.29296875 C9.25695312 -0.19628906 10.11546875 -0.09960938 11 0 C11.66 0.99 12.32 1.98 13 3 C8.71 2.34 4.42 1.68 0 1 C0 0.67 0 0.34 0 0 Z " fill="#5CA8A4" transform="translate(201,178)"/>
<path d="M0 0 C0.66 0.33 1.32 0.66 2 1 C1.34 2.65 0.68 4.3 0 6 C-1.32 5.67 -2.64 5.34 -4 5 C-4 4.34 -4 3.68 -4 3 C-2 1.375 -2 1.375 0 0 Z " fill="#786D8D" transform="translate(157,167)"/>
<path d="M0 0 C3.65316671 1.24976756 4.78065836 1.67098753 7 5 C4.625 4.75 4.625 4.75 2 4 C0.6875 1.9375 0.6875 1.9375 0 0 Z " fill="#635A83" transform="translate(279,96)"/>
</svg>
